<?xml version="1.0" encoding="UTF-8"?>
<svg width="18px" height="12px" viewBox="0 0 18 12" version="1.1" xmlns="http://www.w3.org/2000/svg" xmlns:xlink="http://www.w3.org/1999/xlink">
    <!-- Generator: Sketch 50.2 (55047) - http://www.bohemiancoding.com/sketch -->
    <title>address</title>
    <desc>Created with Sketch.</desc>
    <defs></defs>
    <g id="Page-1" stroke="none" stroke-width="1" fill="none" fill-rule="evenodd">
        <g id="Artboard" transform="translate(-556.000000, -53.000000)">
            <g id="address" transform="translate(556.000000, 50.000000)">
                <polygon id="Shape" points="0 0 18 0 18 18 0 18"></polygon>
                <path d="M15.75,3.75 L15.75,14.25 L17.25,14.25 L17.25,3.75 L15.75,3.75 Z M12.75,14.25 L14.25,14.25 L14.25,3.75 L12.75,3.75 L12.75,14.25 Z M10.5,3.75 L1.5,3.75 C1.0875,3.75 0.75,4.0875 0.75,4.5 L0.75,13.5 C0.75,13.9125 1.0875,14.25 1.5,14.25 L10.5,14.25 C10.9125,14.25 11.25,13.9125 11.25,13.5 L11.25,4.5 C11.25,4.0875 10.9125,3.75 10.5,3.75 Z M6,5.8125 C6.93,5.8125 7.6875,6.57 7.6875,7.5 C7.6875,8.43 6.93,9.1875 6,9.1875 C5.07,9.1875 4.3125,8.43 4.3125,7.5 C4.3125,6.57 5.07,5.8125 6,5.8125 Z M9.375,12.75 L2.625,12.75 L2.625,12.1875 C2.625,11.0625 4.875,10.5 6,10.5 C7.125,10.5 9.375,11.0625 9.375,12.1875 L9.375,12.75 Z" id="Shape" fill="#000000" fill-rule="nonzero"></path>
            </g>
        </g>
    </g>
</svg>