<?xml version="1.0" encoding="UTF-8"?>
<svg width="21px" height="18px" viewBox="0 0 21 18" version="1.1" xmlns="http://www.w3.org/2000/svg" xmlns:xlink="http://www.w3.org/1999/xlink">
    <!-- Generator: Sketch 50.2 (55047) - http://www.bohemiancoding.com/sketch -->
    <title>Shape</title>
    <desc>Created with Sketch.</desc>
    <defs></defs>
    <g id="presentation" stroke="none" stroke-width="1" fill="none" fill-rule="evenodd">
        <g id="Artboard-2" transform="translate(-245.000000, -21.000000)" fill="#FFFFFF" fill-rule="nonzero">
            <path d="M264.999286,37.1771658 L264.692857,37.1771658 L264.692857,22.6179117 C264.692857,21.7243638 263.897523,21 262.916429,21 L254.987859,21 C254.006765,21 253.211431,21.7243638 253.211431,22.6179117 L253.211431,28.498211 L251.983574,28.498211 C250.268526,28.500361 248.878793,29.7660837 248.876432,31.3280928 L248.876432,33.8379052 C248.891444,34.0966882 248.748395,34.3418847 248.504523,34.4753851 C248.26065,34.6088855 247.955786,34.6088855 247.711913,34.4753851 C247.468041,34.3418847 247.324992,34.0966882 247.340004,33.8379052 L247.340004,26.2362572 L249.542861,24.2280169 C249.98392,23.8095849 249.976497,23.1467117 249.52616,22.7365593 C249.075822,22.326407 248.348004,22.3196467 247.888575,22.7213488 L245.342862,25.0418519 C245.122619,25.2411355 244.999146,25.5124323 245.000004,25.7951859 L245.000004,33.8379052 C245.000004,35.4008058 246.391119,36.6677871 248.107147,36.6677871 C249.823174,36.6677871 251.214289,35.4008058 251.214289,33.8379052 L251.214289,31.3300445 C251.214289,30.9430918 251.55871,30.6294047 251.983574,30.6294047 L253.21786,30.6294047 L253.21786,37.1771658 L253.115003,37.1771658 C252.562324,37.1771658 252.114289,37.5852211 252.114289,38.0885829 C252.114289,38.5919447 252.562324,39 253.115003,39 L264.999286,39 C265.551965,39 266,38.5919447 266,38.0885829 C266,37.5852211 265.551965,37.1771658 264.999286,37.1771658 Z M261,24.6105442 C261,24.8256347 260.794618,25 260.541266,25 L256.458734,25 C256.205382,25 256,24.8256347 256,24.6105442 L256,23.3894558 C256,23.1743653 256.205382,23 256.458734,23 L260.541266,23 C260.794618,23 261,23.1743653 261,23.3894558 L261,24.6105442 Z" id="Shape"></path>
        </g>
    </g>
</svg>