<?xml version="1.0" encoding="UTF-8"?>
<svg width="14px" height="13px" viewBox="0 0 14 13" version="1.1" xmlns="http://www.w3.org/2000/svg" xmlns:xlink="http://www.w3.org/1999/xlink">
    <!-- Generator: sketchtool 50.2 (55047) - http://www.bohemiancoding.com/sketch -->
    <title>5CA84698-FAE4-4476-9496-EBF87399972F</title>
    <desc>Created with sketchtool.</desc>
    <defs></defs>
    <g id="Page-1" stroke="none" stroke-width="1" fill="none" fill-rule="evenodd">
        <g id="wallet-(exportable)" transform="translate(-1227.000000, -85.000000)" fill="#3C3C3C" fill-rule="nonzero">
            <g id="header">
                <g id="Group-3" transform="translate(0.000000, 60.000000)">
                    <g id="Group-4" transform="translate(968.000000, 19.000000)">
                        <path d="M272.332857,17.6835086 L272.128572,17.6835086 L272.128572,7.16849181 C272.128572,6.5231516 271.598349,6 270.944286,6 L265.658573,6 C265.00451,6 264.474288,6.5231516 264.474288,7.16849181 L264.474288,11.4153746 L263.655716,11.4153746 C262.512351,11.4169274 261.585862,12.3310604 261.584288,13.4591781 L261.584288,15.2718204 C261.594296,15.4587193 261.49893,15.6358056 261.336348,15.7322226 C261.173767,15.8286395 260.970524,15.8286395 260.807942,15.7322226 C260.645361,15.6358056 260.549995,15.4587193 260.560003,15.2718204 L260.560003,9.7817413 L262.028574,8.33134555 C262.322613,8.02914466 262.317665,7.55040289 262.01744,7.25418174 C261.717215,6.95796059 261.232002,6.95307817 260.925717,7.24319636 L259.228574,8.91911526 C259.081746,9.0630423 258.999431,9.25897891 259.000003,9.46318985 L259.000003,15.2718204 C259.000003,16.400582 259.927413,17.315624 261.071431,17.315624 C262.215449,17.315624 263.142859,16.400582 263.142859,15.2718204 L263.142859,13.4605877 C263.142859,13.1811219 263.372473,12.9545701 263.655716,12.9545701 L264.478573,12.9545701 L264.478573,17.6835086 L264.410002,17.6835086 C264.041549,17.6835086 263.742859,17.9782153 263.742859,18.3417543 C263.742859,18.7052934 264.041549,19 264.410002,19 L272.332857,19 C272.70131,19 273,18.7052934 273,18.3417543 C273,17.9782153 272.70131,17.6835086 272.332857,17.6835086 Z M270.087143,8.96281037 C270.087143,9.14107684 269.940677,9.28559037 269.760001,9.28559037 L266.848573,9.28559037 C266.667897,9.28559037 266.52143,9.14107684 266.52143,8.96281037 L266.52143,7.95077524 C266.52143,7.77250876 266.667897,7.62799523 266.848573,7.62799523 L269.760001,7.62799523 C269.940677,7.62799523 270.087143,7.77250876 270.087143,7.95077524 L270.087143,8.96281037 Z" id="Shape"></path>
                    </g>
                </g>
            </g>
        </g>
    </g>
</svg>