<?xml version="1.0" encoding="UTF-8"?>
<svg width="14px" height="14px" viewBox="0 0 14 14" version="1.1" xmlns="http://www.w3.org/2000/svg" xmlns:xlink="http://www.w3.org/1999/xlink">
    <!-- Generator: Sketch 50.2 (55047) - http://www.bohemiancoding.com/sketch -->
    <title>arrow</title>
    <desc>Created with Sketch.</desc>
    <defs></defs>
    <g id="Page-1" stroke="none" stroke-width="1" fill="none" fill-rule="evenodd">
        <g id="Artboard" transform="translate(-691.000000, -52.000000)">
            <g id="arrow" transform="translate(689.000000, 50.000000)">
                <polygon id="Shape" points="0 0 18 0 18 18 0 18"></polygon>
                <path d="M14.25,14.25 L3.75,14.25 L3.75,3.75 L9,3.75 L9,2.25 L3.75,2.25 C2.9175,2.25 2.25,2.925 2.25,3.75 L2.25,14.25 C2.25,15.075 2.9175,15.75 3.75,15.75 L14.25,15.75 C15.075,15.75 15.75,15.075 15.75,14.25 L15.75,9 L14.25,9 L14.25,14.25 Z M10.5,2.25 L10.5,3.75 L13.1925,3.75 L5.82,11.1225 L6.8775,12.18 L14.25,4.8075 L14.25,7.5 L15.75,7.5 L15.75,2.25 L10.5,2.25 Z" id="Shape" fill="#000000" fill-rule="nonzero"></path>
            </g>
        </g>
    </g>
</svg>