<?xml version="1.0" encoding="UTF-8"?>
<svg width="12px" height="15px" viewBox="0 0 12 15" version="1.1" xmlns="http://www.w3.org/2000/svg" xmlns:xlink="http://www.w3.org/1999/xlink">
    <!-- Generator: Sketch 50.2 (55047) - http://www.bohemiancoding.com/sketch -->
    <title>btc</title>
    <desc>Created with Sketch.</desc>
    <defs></defs>
    <g id="Page-1" stroke="none" stroke-width="1" fill="none" fill-rule="evenodd" opacity="0.5">
        <g id="Artboard-2" transform="translate(-5.000000, -4.000000)">
            <g id="btc" transform="translate(0.000000, 1.000000)">
                <polygon id="Shape" points="0 0 20 0 20 20 0 20"></polygon>
                <path d="M15.9686378,9.0302791 C16.2183274,7.45413716 14.9475367,6.60684056 13.2099009,6.041606 L13.7735644,3.90652222 L12.3973317,3.58263209 L11.8485634,5.66145152 C11.4867682,5.57631469 11.1151737,5.49598993 10.745931,5.4164055 L11.2986191,3.32389014 L9.92317041,3 L9.35911494,5.13434346 C9.05964421,5.06993559 8.76566116,5.00626805 8.48030162,4.93926906 L8.48186953,4.93260617 L6.58391499,4.48508255 L6.2178081,5.87318313 C6.2178081,5.87318313 7.23890921,6.09416874 7.21735046,6.10786467 C7.77474231,6.23927152 7.8754805,6.58759223 7.85862547,6.86373171 L7.2165665,9.29605409 C7.25498029,9.3053081 7.30476141,9.31863386 7.35963825,9.33936283 C7.31377689,9.32862819 7.26477972,9.31678306 7.21421464,9.3053081 L6.31423454,12.7126323 C6.24603047,12.8725415 6.07316844,13.1124053 5.68354291,13.0213459 C5.69726212,13.0402241 4.6832166,12.7855539 4.6832166,12.7855539 L4,14.2732275 L5.79094472,14.69484 C6.1241255,14.7736841 6.45064267,14.8562298 6.77206414,14.9339634 L6.20252098,17.0934778 L7.5771857,17.4173679 L8.14124118,15.2808035 C8.51675552,15.3770451 8.8812945,15.4658836 9.23799393,15.5495398 L8.67589834,17.6761099 L10.052131,18 L10.6216741,15.8445574 C12.9684428,16.2639489 14.733125,16.0947857 15.4759222,14.0903684 C16.0744717,12.4764702 15.4461319,11.5455174 14.2114031,10.9384547 C15.1105993,10.74264 15.7879362,10.1840683 15.9686378,9.0302791 Z M12.8241951,13.1942107 C12.3988996,14.808109 9.52139358,13.9356415 8.58848738,13.7168768 L9.3442198,10.855909 C10.277126,11.0757841 13.2686975,11.5110925 12.8241951,13.1942107 Z M13.2498826,9.00695901 C12.8618249,10.4750142 10.4668431,9.72914148 9.68994386,9.54628236 L10.3751203,6.95145966 C11.1520195,7.13431878 13.6540113,7.47560645 13.2498826,9.00695901 Z" id="Shape" fill="#3C3C3C" fill-rule="nonzero" transform="translate(10.000000, 10.500000) rotate(-14.000000) translate(-10.000000, -10.500000) "></path>
            </g>
        </g>
    </g>
</svg>