<?xml version="1.0" encoding="UTF-8"?>
<svg width="50px" height="50px" viewBox="0 0 50 50" version="1.1" xmlns="http://www.w3.org/2000/svg" xmlns:xlink="http://www.w3.org/1999/xlink">
    <!-- Generator: sketchtool 50.2 (55047) - http://www.bohemiancoding.com/sketch -->
    <title>9DB492FA-0DAF-464C-9FCD-84DC014DE8F9</title>
    <desc>Created with sketchtool.</desc>
    <defs></defs>
    <g id="Page-1" stroke="none" stroke-width="1" fill="none" fill-rule="evenodd">
        <g id="wallet-(exportable)" transform="translate(-517.000000, -269.000000)">
            <g id="bitcoin_asset" transform="translate(480.000000, 141.000000)">
                <g id="bitcoin_info" transform="translate(20.000000, 102.000000)">
                    <g id="ic_bitcoin" transform="translate(17.000000, 26.000000)">
                        <circle id="Oval" fill="#FF991C" cx="25" cy="25" r="25"></circle>
                        <path d="M34.9444627,22.3055117 C35.3866214,19.4159181 33.1362628,17.862541 30.0591995,16.8262777 L31.0573536,12.9119574 L28.6202749,12.3181588 L27.6484976,16.1293278 C27.0078188,15.9732436 26.3497867,15.8259815 25.6959194,15.6800767 L26.674638,11.8437986 L24.2389476,11.25 L23.2400994,15.162963 C22.7097866,15.0448819 22.1891916,14.9281581 21.6838675,14.8053266 L21.686644,14.7931113 L18.3256828,13.9726513 L17.6773685,16.5175024 C17.6773685,16.5175024 19.4855684,16.9226427 19.4473914,16.9477519 C20.4344395,17.1886645 20.6128301,17.8272524 20.5829826,18.3335081 L19.4460032,22.7927658 C19.5140276,22.8097315 19.6021817,22.8341621 19.6993594,22.8721652 C19.6181466,22.852485 19.5313808,22.8307689 19.4418384,22.8097315 L17.8481237,29.0564926 C17.7273456,29.3496595 17.4212358,29.7894097 16.7312739,29.6224675 C16.7555683,29.6570775 14.9598627,29.1901821 14.9598627,29.1901821 L13.75,31.9175838 L16.9214646,32.6905399 C17.5114722,32.8350875 18.0896797,32.9864213 18.6588636,33.128933 L17.6502976,37.0880426 L20.0845997,37.6818412 L21.0834479,33.7648064 C21.7484212,33.9412494 22.393959,34.1041199 23.0256142,34.2574896 L22.0302366,38.1562014 L24.4673153,38.75 L25.4758813,34.7983553 C29.6316174,35.5672396 32.7565756,35.2571071 34.0719455,31.5823421 C35.1318769,28.6235286 34.0191919,26.9167818 31.832693,25.8038336 C33.4250195,25.44484 34.6244703,24.4207919 34.9444627,22.3055117 Z M29.3761788,29.9393863 C28.6230514,32.8981998 23.5274678,31.2986761 21.8754464,30.8976075 L23.2137226,25.6524998 C24.865744,26.0556042 30.1633184,26.8536695 29.3761788,29.9393863 Z M30.1300004,22.2627582 C29.442815,24.9541927 25.2017012,23.5867594 23.8259423,23.2515177 L25.0392756,18.4943427 C26.4150346,18.8295844 30.8456449,19.4552785 30.1300004,22.2627582 Z" id="Shape" fill="#FFFFFF" fill-rule="nonzero" transform="translate(24.375000, 25.000000) rotate(-14.000000) translate(-24.375000, -25.000000) "></path>
                    </g>
                </g>
            </g>
        </g>
    </g>
</svg>