<?xml version="1.0" encoding="UTF-8"?>
<svg width="36px" height="36px" viewBox="0 0 36 36" version="1.1" xmlns="http://www.w3.org/2000/svg" xmlns:xlink="http://www.w3.org/1999/xlink">
    <!-- Generator: sketchtool 50.2 (55047) - http://www.bohemiancoding.com/sketch -->
    <title>FD15AAC3-1E0A-4310-81C8-318DF09CC836</title>
    <desc>Created with sketchtool.</desc>
    <defs></defs>
    <g id="Page-1" stroke="none" stroke-width="1" fill="none" fill-rule="evenodd">
        <g id="wallet-(exportable)" transform="translate(-120.000000, -503.000000)">
            <g id="wallets" transform="translate(100.000000, 160.000000)">
                <g id="Group-11" transform="translate(20.000000, 309.000000)">
                    <g id="USDL" transform="translate(0.000000, 34.000000)">
                        <g id="ic_Ethereum">
                            <circle id="Oval" fill="#65DB6C" cx="18" cy="18" r="18"></circle>
                            <path d="M24,21.2092634 C24,22.5184152 23.5734334,23.6457403 22.7203001,24.5912388 C21.8671668,25.5367374 20.758951,26.1207217 19.3956526,26.343192 L19.3956526,28.5892857 C19.3956526,28.7090774 19.3570687,28.8074777 19.2799009,28.8844866 C19.202733,28.9614955 19.1041297,29 18.9840908,29 L17.2478146,29 C17.1363499,29 17.0398901,28.9593564 16.9584352,28.8780692 C16.8769803,28.796782 16.8362528,28.7005208 16.8362528,28.5892857 L16.8362528,26.343192 C16.2703554,26.266183 15.7237499,26.1335565 15.1964363,25.9453125 C14.6691228,25.7570685 14.233982,25.5666853 13.8910138,25.3741629 C13.5480457,25.1816406 13.2308001,24.9762835 12.9392772,24.7580915 C12.6477543,24.5398996 12.4484041,24.3794643 12.3412265,24.2767857 C12.234049,24.1741071 12.1590247,24.0970982 12.1161537,24.0457589 C11.9703922,23.8660714 11.961818,23.6906622 12.0904311,23.5195312 L13.4151455,21.7868304 C13.475165,21.7012649 13.5737683,21.6499256 13.7109556,21.6328125 C13.8395686,21.6156994 13.9424591,21.6542039 14.0196269,21.7483259 C15.0142345,22.6210937 16.0560003,23.155878 17.1706467,23.3783482 C17.4878923,23.4468006 17.8051378,23.4810268 18.1223834,23.4810268 C18.8168939,23.4810268 19.4278059,23.297061 19.9551194,22.9291295 C20.4824329,22.5611979 20.7460897,22.0392485 20.7460897,21.3632812 C20.7460897,21.1236979 20.6817832,20.8969494 20.5531701,20.6830357 C20.4245571,20.469122 20.2809391,20.2894345 20.1223164,20.1439732 C19.9636936,19.9985119 19.7128981,19.8380766 19.36993,19.6626674 C19.0269619,19.4872582 18.7440131,19.3503534 18.5210838,19.2519531 C18.2981545,19.1535528 17.9551864,19.0145089 17.4921794,18.8348214 C17.1577854,18.6979167 16.8941287,18.5909598 16.7012091,18.5139509 C16.5082895,18.436942 16.2446327,18.3235677 15.9102388,18.1738281 C15.5758449,18.0240885 15.307901,17.8914621 15.1064072,17.7759487 C14.9049134,17.6604353 14.6626922,17.5085565 14.3797434,17.3203125 C14.0967947,17.1320685 13.8674348,16.9502418 13.6916636,16.7748326 C13.5158924,16.5994234 13.3294035,16.3897879 13.1321968,16.1459263 C12.9349901,15.9020647 12.782798,15.6539249 12.6756205,15.4015067 C12.5684429,15.1490885 12.4784138,14.8645833 12.405533,14.5479911 C12.3326523,14.2313988 12.2962119,13.8976935 12.2962119,13.546875 C12.2962119,12.3660714 12.7163479,11.3307292 13.5566199,10.4408482 C14.3968919,9.55096726 15.4901028,8.97767857 16.8362528,8.72098214 L16.8362528,6.41071429 C16.8362528,6.29947917 16.8769803,6.20321801 16.9584352,6.1219308 C17.0398901,6.0406436 17.1363499,6 17.2478146,6 L18.9840908,6 C19.1041297,6 19.202733,6.03850446 19.2799009,6.11551339 C19.3570687,6.19252232 19.3956526,6.29092262 19.3956526,6.41071429 L19.3956526,8.66964286 C19.8843822,8.72098214 20.358107,8.81938244 20.8168269,8.96484375 C21.2755468,9.11030506 21.6485246,9.25362723 21.9357605,9.39481027 C22.2229963,9.5359933 22.4952272,9.69642857 22.7524534,9.87611607 C23.0096795,10.0558036 23.1768764,10.1798735 23.2540443,10.2483259 C23.3312121,10.3167783 23.3955186,10.3766741 23.4469639,10.4280134 C23.5927253,10.5820312 23.6141608,10.7446057 23.5112704,10.9157366 L22.4695046,12.7896205 C22.400911,12.9179687 22.3023077,12.9864211 22.1736946,12.9949777 C22.0536558,13.0206473 21.937904,12.9906994 21.8264394,12.9051339 C21.8007167,12.8794643 21.7385538,12.828125 21.6399504,12.7511161 C21.5413471,12.6741071 21.3741501,12.5607329 21.1383595,12.4109933 C20.9025689,12.2612537 20.6517735,12.124349 20.3859731,12.000279 C20.1201728,11.8762091 19.8007837,11.764974 19.4278059,11.6665737 C19.054828,11.5681734 18.6882808,11.5189732 18.3281642,11.5189732 C17.5136149,11.5189732 16.8491141,11.702939 16.3346619,12.0708705 C15.8202097,12.4388021 15.5629836,12.9136905 15.5629836,13.4955357 C15.5629836,13.718006 15.5994239,13.9233631 15.6723047,14.1116071 C15.7451854,14.2998512 15.8716549,14.4773996 16.0517132,14.6442522 C16.2317714,14.8111049 16.401112,14.9522879 16.5597347,15.0678013 C16.7183575,15.1833147 16.9584352,15.3159412 17.2799678,15.4656808 C17.6015005,15.6154204 17.8608701,15.7309338 18.0580768,15.812221 C18.2552835,15.8935082 18.5553806,16.0111607 18.9583682,16.1651786 C19.412801,16.3363095 19.7600563,16.4710751 20.000134,16.5694754 C20.2402117,16.6678757 20.5660314,16.8176153 20.9775932,17.0186942 C21.389155,17.2197731 21.7128312,17.4015997 21.9486218,17.5641741 C22.1844124,17.7267485 22.4502127,17.9406622 22.7460227,18.2059152 C23.0418327,18.4711682 23.2690491,18.7428385 23.4276719,19.0209263 C23.5862947,19.2990141 23.7213384,19.6263021 23.832803,20.0027902 C23.9442677,20.3792783 24,20.781436 24,21.2092634 Z" id="Shape" fill="#FFFFFF" fill-rule="nonzero"></path>
                        </g>
                    </g>
                </g>
            </g>
        </g>
    </g>
</svg>