<?xml version="1.0" encoding="UTF-8"?>
<svg width="36px" height="36px" viewBox="0 0 36 36" version="1.1" xmlns="http://www.w3.org/2000/svg" xmlns:xlink="http://www.w3.org/1999/xlink">
    <!-- Generator: sketchtool 50.2 (55047) - http://www.bohemiancoding.com/sketch -->
    <title>B0E7D7CD-A17C-4116-B405-7CE32B299E31</title>
    <desc>Created with sketchtool.</desc>
    <defs></defs>
    <g id="Page-1" stroke="none" stroke-width="1" fill="none" fill-rule="evenodd">
        <g id="wallet-(exportable)" transform="translate(-120.000000, -569.000000)">
            <g id="wallets" transform="translate(100.000000, 160.000000)">
                <g id="Group-11" transform="translate(20.000000, 309.000000)">
                    <g id="EURL" transform="translate(0.000000, 100.000000)">
                        <g id="ic_eurl">
                            <circle id="Oval" fill="#B1DA69" cx="18" cy="18" r="18"></circle>
                            <g id="Euro_sign" transform="translate(7.470588, 7.411765)" fill="#FFFFFF" fill-rule="nonzero">
                                <path d="M16.7619018,1.18997853 L16.1574735,3.86016327 C14.9584361,2.89270496 13.6021519,2.4089758 12.0886209,2.4089758 C10.0345401,2.4089758 8.42026737,2.98945093 7.24580267,4.1504012 C6.07133826,5.31135098 5.36616828,6.61258131 5.13029272,8.0540922 L15.1844821,8.0540922 L14.8011895,10.0131981 L4.89441719,10.0131981 L4.86492756,10.5791635 L4.89441719,11.9142452 L14.3736574,11.9142452 L13.9903648,13.8733511 L5.20400123,13.8733511 C5.57746734,15.837293 6.38583203,17.2812256 7.62909528,18.2051489 C8.87235829,19.1290726 10.2753285,19.5910345 11.8380058,19.5910345 C13.6856902,19.5910345 15.1255128,19.1121416 16.1574735,18.154356 L16.1574735,21.1583167 C14.9387832,21.7194389 13.582499,22 12.0886209,22 C6.66348372,22 3.390709,19.291117 2.27029675,13.8733511 L2.84217094e-14,13.8733511 L0.427521768,11.9142452 L1.96071271,11.9142452 C1.94105991,11.6820552 1.93123351,11.2467009 1.93123351,10.6081822 L1.93123351,10.0131981 L2.84217094e-14,10.0131981 L0.427521768,8.0540922 L2.15235894,8.0540922 C2.66342261,5.38390771 3.84771697,3.37401289 5.705242,2.02440773 C7.56276008,0.674802578 9.71020942,0 12.14759,0 C13.9756215,0 15.5137254,0.396659511 16.7619018,1.18997853 Z" id="Shape"></path>
                            </g>
                        </g>
                    </g>
                </g>
            </g>
        </g>
    </g>
</svg>