<?xml version="1.0" encoding="UTF-8"?>
<svg width="36px" height="36px" viewBox="0 0 36 36" version="1.1" xmlns="http://www.w3.org/2000/svg" xmlns:xlink="http://www.w3.org/1999/xlink">
    <!-- Generator: sketchtool 50.2 (55047) - http://www.bohemiancoding.com/sketch -->
    <title>DDD2A329-FE88-4D8F-9ECA-B1A25A584C66</title>
    <desc>Created with sketchtool.</desc>
    <defs></defs>
    <g id="Page-1" stroke="none" stroke-width="1" fill="none" fill-rule="evenodd">
        <g id="wallet-(exportable)" transform="translate(-120.000000, -800.000000)">
            <g id="wallets" transform="translate(100.000000, 160.000000)">
                <g id="AMM" transform="translate(20.000000, 640.000000)">
                    <g id="ic_amm">
                        <g id="ic_etc">
                            <g>
                                <circle id="Oval" fill="#50E3C2" cx="18" cy="18" r="18"></circle>
                                <g id="logo" transform="translate(9.000000, 7.411765)" fill="#FFFFFF" fill-rule="nonzero">
                                    <path d="M2.625,6.61492628 L2.625,14.2256636 L9,18.0114317 L15.375,14.2256636 L15.375,6.61492628 L9,2.82915808 L2.625,6.61492628 Z M9.57087435,0.53506343 L17.0708743,4.98890836 C17.4142234,5.19280481 17.625,5.56463913 17.625,5.96644998 L17.625,14.8741398 C17.625,15.2759507 17.4142234,15.647785 17.0708743,15.8516815 L9.57087435,20.3055264 C9.2185671,20.5147426 8.7814329,20.5147426 8.42912565,20.3055264 L0.92912565,15.8516815 C0.585776625,15.647785 0.375,15.2759507 0.375,14.8741398 L0.375,5.96644998 C0.375,5.56463913 0.585776625,5.19280481 0.92912565,4.98890836 L8.42912565,0.53506343 C8.7814329,0.325847204 9.2185671,0.325847204 9.57087435,0.53506343 Z" id="Path-Copy-2"></path>
                                    <path d="M2.03454255,5.70046747 C1.48783943,5.40276694 0.80532615,5.60834772 0.510106425,6.15964499 C0.214886775,6.71094225 0.418754325,7.39919095 0.96545745,7.69689151 L8.46545745,11.7809251 C8.79905363,11.9625808 9.20094638,11.9625808 9.53454255,11.7809251 L17.0345426,7.69689151 C17.5812457,7.39919095 17.7851132,6.71094225 17.4898936,6.15964499 C17.1946739,5.60834772 16.5121606,5.40276694 15.9654575,5.70046747 L9,9.49342243 L2.03454255,5.70046747 Z" id="Path-24-Copy"></path>
                                </g>
                            </g>
                        </g>
                    </g>
                </g>
            </g>
        </g>
    </g>
</svg>