<?xml version="1.0" encoding="UTF-8"?>
<svg width="137px" height="25px" viewBox="0 0 137 25" version="1.1" xmlns="http://www.w3.org/2000/svg" xmlns:xlink="http://www.w3.org/1999/xlink">
    <!-- Generator: Sketch 50.2 (55047) - http://www.bohemiancoding.com/sketch -->
    <title>footer-logo</title>
    <desc>Created with Sketch.</desc>
    <defs></defs>
    <g id="Page-1" stroke="none" stroke-width="1" fill="none" fill-rule="evenodd">
        <g id="wallet-(exportable)" transform="translate(-121.000000, -1020.000000)" fill-rule="nonzero">
            <g id="footer" transform="translate(0.000000, 997.000000)">
                <g id="footer-logo" transform="translate(121.000000, 23.000000)">
                    <g id="logo_PL_2-(1)">
                        <g id="Group-4" fill="#FF6701">
                            <polygon id="Combined-Shape" points="29.3718059 8.05084749 24.9972816 12.5 29.3718059 16.9491525 21.456 25 9.16566991 12.5 21.456 0"></polygon>
                            <polygon id="Combined-Shape" points="11.8737087 8.05084749 7.49918448 12.5 11.8737087 16.9491525 8.12411647 20.7627119 0 12.5 8.12411647 4.23728813"></polygon>
                            <polygon id="Polygon-Copy-3" points="34.7878835 4.23728813 42.912 12.5 34.7878835 20.7627119 26.663767 12.5"></polygon>
                        </g>
                        <g id="Group-5" transform="translate(51.287671, 6.451613)" fill="#FFFFFF" stroke="#FFFFFF" stroke-width="0.519999998">
                            <path d="M4.21155932,0.0628758887 C5.60554585,0.0628758887 6.7022688,0.404042515 7.50176107,1.086386 C8.30125335,1.76872949 8.70099349,2.70824989 8.70099349,3.90497539 C8.70099349,5.1017009 8.30125335,6.0412213 7.50176107,6.72356479 C6.7022688,7.40590828 5.60554585,7.7470749 4.21155932,7.7470749 L1.55172333,7.7470749 L1.55172333,11.0852925 L0.014245875,11.0852925 L0.014245875,0.0628758887 L4.21155932,0.0628758887 Z M4.165435,6.37714598 C5.13917559,6.37714598 5.88228226,6.16457293 6.39477731,5.73942045 C6.90727235,5.31426797 7.16351603,4.70279239 7.16351603,3.90497539 C7.16351603,3.10715839 6.90727235,2.49568283 6.39477731,2.07053034 C5.88228226,1.64537786 5.13917559,1.43280481 4.165435,1.43280481 L1.55172333,1.43280481 L1.55172333,6.37714598 L4.165435,6.37714598 Z M12.643769,1.28758885 L14.0104156,1.28758885 L14.0104156,9.86757794 L19.1900063,9.86757794 L19.1900063,11.0852925 L12.643769,11.0852925 L12.643769,1.28758885 Z M28.6062016,8.6358666 L23.5222762,8.6358666 L22.4699583,11.0852925 L21.0623122,11.0852925 L25.3945821,1.28758885 L26.7475622,1.28758885 L31.0934985,11.0852925 L29.6585195,11.0852925 L28.6062016,8.6358666 Z M28.1278753,7.51612903 L26.0642389,2.71525424 L24.0006024,7.51612903 L28.1278753,7.51612903 Z M35.6444317,2.50530344 L32.3644799,2.50530344 L32.3644799,1.28758885 L40.2773638,1.28758885 L40.2773638,2.50530344 L36.9974119,2.50530344 L36.9974119,11.0852925 L35.6444317,11.0852925 L35.6444317,2.50530344 Z M43.4753168,1.28758885 L44.8419635,1.28758885 L44.8419635,11.0852925 L43.4753168,11.0852925 L43.4753168,1.28758885 Z M57.6474424,1.28758885 L57.6474424,11.0852925 L56.5267921,11.0852925 L50.7868763,3.77900492 L50.7868763,11.0852925 L49.4202297,11.0852925 L49.4202297,1.28758885 L50.5408799,1.28758885 L56.2807957,8.59387643 L56.2807957,1.28758885 L57.6474424,1.28758885 Z M66.1889838,11.1972663 C64.9134406,11.1972663 63.920354,10.8240241 63.2096942,10.0775287 C62.4990343,9.33103327 62.1437098,8.25796216 62.1437098,6.85828321 L62.1437098,1.28758885 L63.5103564,1.28758885 L63.5103564,6.80229634 C63.5103564,8.90181476 64.4077787,9.95155823 66.2026503,9.95155823 C67.0773085,9.95155823 67.7469586,9.69262147 68.2116208,9.1747403 C68.6762829,8.65685909 68.9086106,7.86605234 68.9086106,6.80229634 L68.9086106,1.28758885 L70.2342578,1.28758885 L70.2342578,6.85828321 C70.2342578,8.26729336 69.8789332,9.34269722 69.1682734,10.084527 C68.4576136,10.8263569 67.464527,11.1972663 66.1889838,11.1972663 Z M83.6137283,11.0852925 L83.6000618,3.94696556 L80.1424458,9.89557134 L79.5137884,9.89557134 L76.0561724,3.98895571 L76.0561724,11.0852925 L74.7441917,11.0852925 L74.7441917,1.28758885 L75.8648419,1.28758885 L79.8554501,8.17397485 L83.7913923,1.28758885 L84.9120425,1.28758885 L84.925709,11.0852925 L83.6137283,11.0852925 Z" id="Platinum"></path>
                        </g>
                    </g>
                </g>
            </g>
        </g>
    </g>
</svg>