<?xml version="1.0" encoding="UTF-8"?>
<svg width="49px" height="49px" viewBox="0 0 49 49" version="1.1" xmlns="http://www.w3.org/2000/svg" xmlns:xlink="http://www.w3.org/1999/xlink">
    <!-- Generator: Sketch 50.2 (55047) - http://www.bohemiancoding.com/sketch -->
    <title>no_screen</title>
    <desc>Created with Sketch.</desc>
    <defs></defs>
    <g id="Page-1" stroke="none" stroke-width="1" fill="none" fill-rule="evenodd">
        <g id="Artboard-3" transform="translate(-196.000000, -50.000000)" fill="#FFFFFF" fill-rule="nonzero">
            <g id="no_screen" transform="translate(196.000000, 50.000000)">
                <path d="M24.4468171,13.8705854 C30.1642805,13.8705854 34.8043415,18.5106463 34.8043415,24.2281098 C34.8043415,24.3637561 34.7696829,24.4898415 34.7643049,24.6242927 L45.1618659,35.0218537 L45.1618659,11.799439 C45.1618659,9.52093902 43.2974756,7.65654878 41.0189756,7.65654878 L34.452378,7.65654878 L30.6614512,3.51365854 L18.2321829,3.51365854 L16.0439146,5.90509756 L24.0500366,13.9112195 C24.1850854,13.9058415 24.3111707,13.8705854 24.4468171,13.8705854 Z" id="Shape"></path>
                <path d="M48.8464268,45.466622 L43.4074268,40.027622 L33.1628415,29.7830366 L30.4260122,27.0462073 L21.6293171,18.2495122 L18.8924878,15.5126829 L11.0363537,7.65595122 L3.53337805,0.153573171 L0.153573171,3.53337805 L5.24718293,8.6269878 C4.33052439,9.38828049 3.73176829,10.5218537 3.73176829,11.799439 L3.73176829,36.6579756 C3.73176829,38.9364756 5.59615854,40.8008659 7.87465854,40.8008659 L37.421061,40.8008659 L45.466622,48.8464268 L48.8464268,45.466622 Z M24.4468171,34.5862317 C18.7293537,34.5862317 14.0892927,29.9461707 14.0892927,24.2287073 C14.0892927,22.2920122 14.6366585,20.4921585 15.5658659,18.9462683 L18.3319756,21.712378 C18.0086951,22.4886098 17.8174756,23.333561 17.8174756,24.2287073 C17.8174756,27.8899634 20.785561,30.8574512 24.4462195,30.8574512 C25.3413659,30.8574512 26.1863171,30.6662317 26.9625488,30.3429512 L29.7286585,33.109061 C28.1839634,34.0394634 26.3835122,34.5862317 24.4468171,34.5862317 Z" id="Shape"></path>
            </g>
        </g>
    </g>
</svg>