<?xml version="1.0" encoding="UTF-8"?>
<svg width="22px" height="22px" viewBox="0 0 22 22" version="1.1" xmlns="http://www.w3.org/2000/svg" xmlns:xlink="http://www.w3.org/1999/xlink">
    <!-- Generator: Sketch 50.2 (55047) - http://www.bohemiancoding.com/sketch -->
    <title>ic_qr</title>
    <desc>Created with Sketch.</desc>
    <defs></defs>
    <g id="presentation" stroke="none" stroke-width="1" fill="none" fill-rule="evenodd">
        <g id="Artboard-2" transform="translate(-161.000000, -18.000000)">
            <g id="ic_qr" transform="translate(160.000000, 17.000000)">
                <g id="noun_1183022_cc" transform="translate(1.000000, 1.000000)" fill="#FFFFFF" fill-rule="nonzero">
                    <path d="M8.53695652,9.92391304 L1.60217391,9.92391304 C0.836956522,9.92391304 0.215217391,9.30217391 0.215217391,8.53695652 L0.215217391,1.60217391 C0.239130435,0.860869565 0.860869565,0.239130435 1.62608696,0.239130435 L8.56086957,0.239130435 C9.32608696,0.239130435 9.94782609,0.860869565 9.94782609,1.62608696 L9.94782609,8.56086957 C9.92391304,9.30217391 9.30217391,9.92391304 8.53695652,9.92391304 Z M1.86521739,8.32173913 L8.32173913,8.32173913 L8.32173913,1.86521739 L1.86521739,1.86521739 L1.86521739,8.32173913 Z" id="Shape"></path>
                    <rect id="Rectangle-path" x="3.4673913" y="3.4673913" width="3.22826087" height="3.22826087"></rect>
                    <path d="M8.53695652,21.7608696 L1.60217391,21.7608696 C0.860869565,21.7608696 0.239130435,21.1391304 0.239130435,20.373913 L0.239130435,13.4391304 C0.239130435,12.673913 0.860869565,12.0521739 1.62608696,12.0521739 L8.56086957,12.0521739 C9.32608696,12.0521739 9.94782609,12.673913 9.94782609,13.4391304 L9.94782609,20.373913 C9.92391304,21.1391304 9.30217391,21.7608696 8.53695652,21.7608696 Z M1.86521739,20.1347826 L8.32173913,20.1347826 L8.32173913,13.6782609 L1.86521739,13.6782609 L1.86521739,20.1347826 Z" id="Shape"></path>
                    <rect id="Rectangle-path" x="3.4673913" y="15.3043478" width="3.22826087" height="3.22826087"></rect>
                    <rect id="Rectangle-path" x="15.3043478" y="15.3043478" width="3.22826087" height="3.22826087"></rect>
                    <rect id="Rectangle-path" x="12.076087" y="12.076087" width="3.22826087" height="3.22826087"></rect>
                    <rect id="Rectangle-path" x="18.5326087" y="12.076087" width="3.22826087" height="3.22826087"></rect>
                    <rect id="Rectangle-path" x="18.5326087" y="18.5326087" width="3.22826087" height="3.22826087"></rect>
                    <rect id="Rectangle-path" x="12.076087" y="18.5326087" width="3.22826087" height="3.22826087"></rect>
                    <path d="M20.373913,9.92391304 L13.4391304,9.92391304 C12.673913,9.92391304 12.0521739,9.30217391 12.0521739,8.53695652 L12.0521739,1.60217391 C12.0521739,0.836956522 12.673913,0.215217391 13.4391304,0.215217391 L20.373913,0.215217391 C21.1391304,0.215217391 21.7608696,0.836956522 21.7608696,1.60217391 L21.7608696,8.53695652 C21.7608696,9.30217391 21.1391304,9.92391304 20.373913,9.92391304 Z M13.6782609,8.32173913 L20.1347826,8.32173913 L20.1347826,1.86521739 L13.6782609,1.86521739 L13.6782609,8.32173913 Z" id="Shape"></path>
                    <rect id="Rectangle-path" x="15.3043478" y="3.4673913" width="3.22826087" height="3.22826087"></rect>
                </g>
                <polygon id="Shape" points="0 0 24 0 24 24 0 24"></polygon>
            </g>
        </g>
    </g>
</svg>