<?xml version="1.0" encoding="UTF-8"?>
<svg width="14px" height="14px" viewBox="0 0 14 14" version="1.1" xmlns="http://www.w3.org/2000/svg" xmlns:xlink="http://www.w3.org/1999/xlink">
    <!-- Generator: Sketch 50.2 (55047) - http://www.bohemiancoding.com/sketch -->
    <title>US_flag</title>
    <desc>Created with Sketch.</desc>
    <defs>
        <rect id="path-1" x="0" y="0" width="14" height="14" rx="7"></rect>
        <linearGradient x1="50%" y1="0%" x2="50%" y2="100%" id="linearGradient-3">
            <stop stop-color="#FFFFFF" offset="0%"></stop>
            <stop stop-color="#F0F0F0" offset="100%"></stop>
        </linearGradient>
        <path d="M2.29166667,2.33333333 C2.02319491,2.33333333 1.80555556,2.11297348 1.80555556,1.84114583 C1.80555556,1.56931818 2.02319491,1.34895833 2.29166667,1.34895833 C2.56013842,1.34895833 2.77777778,1.56931818 2.77777778,1.84114583 C2.77777778,2.11297348 2.56013842,2.33333333 2.29166667,2.33333333 Z M4.23611111,2.33333333 C3.96763936,2.33333333 3.75,2.11297348 3.75,1.84114583 C3.75,1.56931818 3.96763936,1.34895833 4.23611111,1.34895833 C4.50458286,1.34895833 4.72222222,1.56931818 4.72222222,1.84114583 C4.72222222,2.11297348 4.50458286,2.33333333 4.23611111,2.33333333 Z M6.18055556,2.33333333 C5.9120838,2.33333333 5.69444444,2.11297348 5.69444444,1.84114583 C5.69444444,1.56931818 5.9120838,1.34895833 6.18055556,1.34895833 C6.44902731,1.34895833 6.66666667,1.56931818 6.66666667,1.84114583 C6.66666667,2.11297348 6.44902731,2.33333333 6.18055556,2.33333333 Z M8.125,2.33333333 C7.85652825,2.33333333 7.63888889,2.11297348 7.63888889,1.84114583 C7.63888889,1.56931818 7.85652825,1.34895833 8.125,1.34895833 C8.39347175,1.34895833 8.61111111,1.56931818 8.61111111,1.84114583 C8.61111111,2.11297348 8.39347175,2.33333333 8.125,2.33333333 Z M3.26388889,3.31770833 C2.99541714,3.31770833 2.77777778,3.09734848 2.77777778,2.82552083 C2.77777778,2.55369318 2.99541714,2.33333333 3.26388889,2.33333333 C3.53236064,2.33333333 3.75,2.55369318 3.75,2.82552083 C3.75,3.09734848 3.53236064,3.31770833 3.26388889,3.31770833 Z M5.20833333,3.31770833 C4.93986158,3.31770833 4.72222222,3.09734848 4.72222222,2.82552083 C4.72222222,2.55369318 4.93986158,2.33333333 5.20833333,2.33333333 C5.47680509,2.33333333 5.69444444,2.55369318 5.69444444,2.82552083 C5.69444444,3.09734848 5.47680509,3.31770833 5.20833333,3.31770833 Z M7.15277778,3.31770833 C6.88430602,3.31770833 6.66666667,3.09734848 6.66666667,2.82552083 C6.66666667,2.55369318 6.88430602,2.33333333 7.15277778,2.33333333 C7.42124953,2.33333333 7.63888889,2.55369318 7.63888889,2.82552083 C7.63888889,3.09734848 7.42124953,3.31770833 7.15277778,3.31770833 Z M3.26388889,0.984375 C2.99541714,0.984375 2.77777778,0.76401515 2.77777778,0.4921875 C2.77777778,0.22035985 2.99541714,0 3.26388889,0 C3.53236064,0 3.75,0.22035985 3.75,0.4921875 C3.75,0.76401515 3.53236064,0.984375 3.26388889,0.984375 Z M8.125,4.30208333 C7.85652825,4.30208333 7.63888889,4.08172348 7.63888889,3.80989583 C7.63888889,3.53806818 7.85652825,3.31770833 8.125,3.31770833 C8.39347175,3.31770833 8.61111111,3.53806818 8.61111111,3.80989583 C8.61111111,4.08172348 8.39347175,4.30208333 8.125,4.30208333 Z M6.18055556,4.30208333 C5.9120838,4.30208333 5.69444444,4.08172348 5.69444444,3.80989583 C5.69444444,3.53806818 5.9120838,3.31770833 6.18055556,3.31770833 C6.44902731,3.31770833 6.66666667,3.53806818 6.66666667,3.80989583 C6.66666667,4.08172348 6.44902731,4.30208333 6.18055556,4.30208333 Z M4.23611111,4.30208333 C3.96763936,4.30208333 3.75,4.08172348 3.75,3.80989583 C3.75,3.53806818 3.96763936,3.31770833 4.23611111,3.31770833 C4.50458286,3.31770833 4.72222222,3.53806818 4.72222222,3.80989583 C4.72222222,4.08172348 4.50458286,4.30208333 4.23611111,4.30208333 Z M2.29166667,4.30208333 C2.02319491,4.30208333 1.80555556,4.08172348 1.80555556,3.80989583 C1.80555556,3.53806818 2.02319491,3.31770833 2.29166667,3.31770833 C2.56013842,3.31770833 2.77777778,3.53806818 2.77777778,3.80989583 C2.77777778,4.08172348 2.56013842,4.30208333 2.29166667,4.30208333 Z M3.26388889,5.28645833 C2.99541714,5.28645833 2.77777778,5.06609848 2.77777778,4.79427083 C2.77777778,4.52244318 2.99541714,4.30208333 3.26388889,4.30208333 C3.53236064,4.30208333 3.75,4.52244318 3.75,4.79427083 C3.75,5.06609848 3.53236064,5.28645833 3.26388889,5.28645833 Z M5.20833333,5.28645833 C4.93986158,5.28645833 4.72222222,5.06609848 4.72222222,4.79427083 C4.72222222,4.52244318 4.93986158,4.30208333 5.20833333,4.30208333 C5.47680509,4.30208333 5.69444444,4.52244318 5.69444444,4.79427083 C5.69444444,5.06609848 5.47680509,5.28645833 5.20833333,5.28645833 Z M7.15277778,5.28645833 C6.88430602,5.28645833 6.66666667,5.06609848 6.66666667,4.79427083 C6.66666667,4.52244318 6.88430602,4.30208333 7.15277778,4.30208333 C7.42124953,4.30208333 7.63888889,4.52244318 7.63888889,4.79427083 C7.63888889,5.06609848 7.42124953,5.28645833 7.15277778,5.28645833 Z M8.125,6.27083333 C7.85652825,6.27083333 7.63888889,6.05047348 7.63888889,5.77864583 C7.63888889,5.50681818 7.85652825,5.28645833 8.125,5.28645833 C8.39347175,5.28645833 8.61111111,5.50681818 8.61111111,5.77864583 C8.61111111,6.05047348 8.39347175,6.27083333 8.125,6.27083333 Z M6.18055556,6.27083333 C5.9120838,6.27083333 5.69444444,6.05047348 5.69444444,5.77864583 C5.69444444,5.50681818 5.9120838,5.28645833 6.18055556,5.28645833 C6.44902731,5.28645833 6.66666667,5.50681818 6.66666667,5.77864583 C6.66666667,6.05047348 6.44902731,6.27083333 6.18055556,6.27083333 Z M4.23611111,6.27083333 C3.96763936,6.27083333 3.75,6.05047348 3.75,5.77864583 C3.75,5.50681818 3.96763936,5.28645833 4.23611111,5.28645833 C4.50458286,5.28645833 4.72222222,5.50681818 4.72222222,5.77864583 C4.72222222,6.05047348 4.50458286,6.27083333 4.23611111,6.27083333 Z M2.29166667,6.27083333 C2.02319491,6.27083333 1.80555556,6.05047348 1.80555556,5.77864583 C1.80555556,5.50681818 2.02319491,5.28645833 2.29166667,5.28645833 C2.56013842,5.28645833 2.77777778,5.50681818 2.77777778,5.77864583 C2.77777778,6.05047348 2.56013842,6.27083333 2.29166667,6.27083333 Z" id="path-4"></path>
        <filter x="0.0%" y="0.0%" width="100.0%" height="100.0%" filterUnits="objectBoundingBox" id="filter-5">
            <feOffset dx="0" dy="0" in="SourceAlpha" result="shadowOffsetOuter1"></feOffset>
            <feColorMatrix values="0 0 0 0 0   0 0 0 0 0   0 0 0 0 0  0 0 0 0.06 0" type="matrix" in="shadowOffsetOuter1"></feColorMatrix>
        </filter>
    </defs>
    <g id="presentation" stroke="none" stroke-width="1" fill="none" fill-rule="evenodd">
        <g id="Artboard" transform="translate(-2.000000, -1.000000)">
            <g id="US_flag" transform="translate(2.000000, 1.000000)">
                <mask id="mask-2" fill="white">
                    <use xlink:href="#path-1"></use>
                </mask>
                <use id="Rectangle-3" fill="#FFFFFF" xlink:href="#path-1"></use>
                <g id="US" mask="url(#mask-2)">
                    <g transform="translate(-2.000000, 0.000000)">
                        <path d="M0.833333333,1.16666667 L21.25,1.16666667 L21.25,2.15104167 L0.833333333,2.15104167 L0.833333333,1.16666667 Z M0.833333333,3.13541667 L21.25,3.13541667 L21.25,4.11979167 L0.833333333,4.11979167 L0.833333333,3.13541667 Z M0.833333333,5.10416667 L21.25,5.10416667 L21.25,6.08854167 L0.833333333,6.08854167 L0.833333333,5.10416667 Z M0.833333333,7.07291667 L21.25,7.07291667 L21.25,8.05729167 L0.833333333,8.05729167 L0.833333333,7.07291667 Z M0.833333333,9.04166667 L21.25,9.04166667 L21.25,10.0260417 L0.833333333,10.0260417 L0.833333333,9.04166667 Z M0.833333333,11.0104167 L21.25,11.0104167 L21.25,11.9947917 L0.833333333,11.9947917 L0.833333333,11.0104167 Z M0.833333333,12.9791667 L21.25,12.9791667 L21.25,13.9635417 L0.833333333,13.9635417 L0.833333333,12.9791667 Z M0.833333333,14.9479167 L21.25,14.9479167 L21.25,15.9322917 L0.833333333,15.9322917 L0.833333333,14.9479167 Z" id="Rectangle-511" fill="#D02F44" fill-rule="evenodd"></path>
                        <rect id="Rectangle-511" fill="#46467F" fill-rule="evenodd" x="0.833333333" y="0" width="8.75" height="8.05729167"></rect>
                        <g id="Oval-43" fill="none">
                            <use fill="black" fill-opacity="1" filter="url(#filter-5)" xlink:href="#path-4"></use>
                            <use fill="url(#linearGradient-3)" fill-rule="evenodd" xlink:href="#path-4"></use>
                        </g>
                    </g>
                </g>
            </g>
        </g>
    </g>
</svg>