<svg version="1.1" xmlns="http://www.w3.org/2000/svg" viewBox="0 0 1843 1843">
<g id="XMLID_32_" transform="translate(546.000000, 524.000000)">
	<path id="XMLID_34_" fill="none" stroke="#266ED0" stroke-width="45" d="M19.9,20h709c0,200,0,368.7,0,506S610.7,778,374.4,870
		C138.1,777.3,19.9,662.7,19.9,526S19.9,220.7,19.9,20z"/>
</g>
<circle id="XMLID_1_" fill="none" stroke="#266ED0" stroke-width="39" cx="920.5" cy="920.5" r="658"/>
<g id="XMLID_1422_" transform="translate(58.000000, 58.000000)">
	<path id="XMLID_1423_" fill="#266ED0" d="M305.5,1493.6c-1.3-1.1-1.5-2.2-0.4-3.6l8.6-10.9c0.9-1.2,2.1-1.3,3.5-0.3L344,1500
		l62.1-78.5c1.1-1.3,2.2-1.5,3.4-0.5l12.3,9.7c1.2,0.9,1.3,2.1,0.3,3.5l-62.1,78.5l26.9,21.3c1.3,1.1,1.5,2.2,0.5,3.4l-8.6,10.9
		c-1.1,1.3-2.2,1.5-3.6,0.4L305.5,1493.6z"/>
	<path id="XMLID_1425_" fill="#266ED0" d="M224.9,1407c-1.3,1.1-2.5,1.1-3.5-0.1l-10.5-11.6c-1-1.1-1-2.3,0.3-3.5l86.3-78.2
		c1.3-1.1,2.5-1.1,3.5,0.1l10.5,11.6c1,1.1,1,2.3-0.3,3.5l-36.7,33.2l32.2,35.5l36.7-33.2c1.3-1.1,2.5-1.1,3.5,0.1l10.5,11.6
		c1,1.1,1,2.3-0.3,3.5l-86.3,78.2c-1.3,1.1-2.5,1.1-3.5-0.1l-10.5-11.6c-1-1.1-1-2.3,0.3-3.5l35.7-32.3l-32.2-35.5L224.9,1407z"/>
	<path id="XMLID_1427_" fill="#266ED0" d="M249.2,1273.1l-29.5-45.9c-0.9-1.4-0.7-2.6,0.6-3.4l11.6-7.4c1.4-0.9,2.6-0.7,3.5,0.8
		l39.3,61.2c0.8,1.3,0.6,2.5-0.9,3.4l-98,62.9c-1.4,0.9-2.6,0.7-3.4-0.6l-38-59.2c-0.9-1.4-0.7-2.6,0.8-3.5l11.6-7.4
		c1.3-0.8,2.5-0.6,3.4,0.9l28.2,43.9l26.8-17.2l-25.8-40.2c-0.9-1.4-0.7-2.6,0.8-3.5l11.4-7.3c1.4-0.9,2.6-0.7,3.5,0.8l25.8,40.2
		L249.2,1273.1z"/>
	<path id="XMLID_1429_" fill="#266ED0" d="M126.9,1066.7c25.4-8.8,47.9,2.8,57.1,29.3c9.1,26.3-1.4,49.3-26.8,58.1l-72.4,25.1
		c-1.6,0.6-2.7,0-3.2-1.6l-5.2-14.9c-0.6-1.6,0-2.7,1.6-3.2l71.3-24.7c16.1-5.6,22.1-17.2,16.8-32.5c-5.3-15.3-17.3-21-33.4-15.4
		l-71.3,24.7c-1.6,0.6-2.7,0-3.2-1.6l-5.2-14.9c-0.6-1.6,0-2.7,1.6-3.2L126.9,1066.7z"/>
	<path id="XMLID_1431_" fill="#266ED0" d="M157.3,1013.5c0.2,1.5-0.5,2.5-2.2,2.7L40,1033.9c-1.7,0.3-2.6-0.5-2.9-2l-2.6-17
		c-0.2-1.2,0.2-2.3,1.2-3.3L87.8,970c9.2-7.4,19.3-15.4,27.8-21.5l-0.2-0.5c-14.1,3.4-31.2,6.3-45.3,8.5l-41,6.3
		c-1.7,0.3-2.6-0.5-2.9-2.1l-2.3-15.1c-0.3-1.7,0.5-2.6,2.1-2.9L141.1,925c1.7-0.3,2.6,0.5,2.9,2.1l2.6,17c0.2,1.2-0.2,2.3-1.2,3.1
		L97.7,987c-9.1,7.8-21,16.8-30.3,23.1l0.2,0.5c14.5-3.1,31.7-6.4,46-8.6l38.5-5.9c1.7-0.3,2.6,0.5,2.9,2L157.3,1013.5z"/>
	<path id="XMLID_1433_" fill="#266ED0" d="M139.8,864.2c1.7,0,2.6,0.8,2.6,2.3l0.3,15.6c0,1.5-0.8,2.4-2.5,2.4l-116.4,2.1
		c-1.7,0-2.6-0.8-2.6-2.3l-0.3-15.6c0-1.5,0.8-2.4,2.5-2.4L139.8,864.2z"/>
	<path id="XMLID_1435_" fill="#266ED0" d="M145.6,792.9c-0.1,1.2-0.9,2.1-2.3,2.6l-120.4,28c-1.9,0.3-2.9-0.5-2.6-2.3l1.9-16.9
		c0.2-1.5,0.9-2.3,2.3-2.5l67.8-14.9c10.5-2.3,21.5-4.3,31.8-6.4l0.1-0.7c-9.8-4.5-19.7-8.9-29.6-13.4l-62.9-29.2
		c-1.3-0.5-1.9-1.6-1.7-3.1l1.9-16.9c0.2-1.9,1.3-2.4,3.1-1.5l111.2,53.8c1.3,0.7,1.9,1.7,1.7,2.9L145.6,792.9z"/>
	<path id="XMLID_1437_" fill="#266ED0" d="M146.9,678.2l14.2-52.7c0.4-1.6,1.5-2.2,3-1.8l13.3,3.6c1.6,0.4,2.2,1.5,1.8,3.1
		l-18.9,70.3c-0.4,1.5-1.4,2.1-3.1,1.6L44.8,672c-1.6-0.4-2.2-1.5-1.8-3l18.3-68c0.4-1.6,1.5-2.2,3.1-1.8l13.3,3.6
		c1.5,0.4,2.1,1.4,1.6,3.1l-13.6,50.4l30.7,8.3l12.4-46.1c0.4-1.6,1.5-2.2,3.1-1.8l13.1,3.5c1.6,0.4,2.2,1.5,1.8,3.1l-12.4,46.2
		L146.9,678.2z"/>
	<path id="XMLID_1439_" fill="#266ED0" d="M220.3,534.7c-0.5,1.1-1.4,1.8-2.8,1.9l-51.2,9.2l-6.3,13.7l38,17.5
		c1.5,0.7,2,1.8,1.3,3.2l-6.5,14.2c-0.6,1.4-1.8,1.8-3.3,1.1L83.7,546.9c-1.5-0.7-2-1.8-1.3-3.2l16.5-35.8
		c11.7-25.5,31.4-34.2,53.7-24c17.1,7.9,24.2,22.6,21.1,40.8l52.5-10.1c2.2-0.3,2.9,1,2.1,2.7L220.3,534.7z M107,535.3l36.3,16.7
		l8.9-19.5c6.6-14.4,4-23.8-8.3-29.5c-12.5-5.8-21.4-1.6-28,12.8L107,535.3z"/>
	<path id="XMLID_1442_" fill="#266ED0" d="M267.8,459.2c-9.5,14.1-21.1,21.4-37.8,26.7c-1.7,0.3-2.7-0.2-3.2-1.6l-5.1-13.7
		c-0.5-1.4,0-2.5,1.5-3.1c12.8-4.7,22.2-10.6,29.1-19.9c7-10.3,9.5-23.4-0.1-29.8c-10.1-6.9-19.8,2-30.7,12.5
		c-13.1,12.7-33,27.5-54,13.3c-19.6-13.3-16.3-36.3-2.5-56.6c8.3-12.2,17.9-19.5,33.5-25.5c1.6-0.8,2.6-0.3,3.2,1.3l5.1,13.3
		c0.6,1.5,0.1,2.5-1.6,3.2c-11.2,4.7-19,11.4-25.2,19.7c-8.3,12.2-8.3,22.3-0.6,27.5c8.9,6,17.6-1.2,28.7-11.8
		c15-13.9,33.3-29.8,55.6-14.7C284.8,414.4,281.7,438.6,267.8,459.2z"/>
	<path id="XMLID_1444_" fill="#266ED0" d="M325.7,377.8c1.3,1.1,1.4,2.3,0.3,3.5l-10.3,11.8c-1,1.1-2.2,1.2-3.5,0.1l-87.5-76.8
		c-1.3-1.1-1.4-2.3-0.3-3.5l10.3-11.8c1-1.1,2.2-1.2,3.5-0.1L325.7,377.8z"/>
	<path id="XMLID_1446_" fill="#266ED0" d="M333.2,206c1.3-1.1,2.5-1.1,3.6,0.2l9.3,10.4c1,1.1,1,2.3-0.3,3.5l-25.4,22.8l66.8,74.6
		c1.1,1.3,1.1,2.5-0.1,3.5l-11.6,10.4c-1.1,1-2.3,1-3.5-0.3l-66.8-74.6l-25.6,22.9c-1.3,1.1-2.5,1.1-3.5-0.1l-9.3-10.4
		c-1.1-1.3-1.1-2.5,0.2-3.6L333.2,206z"/>
	<path id="XMLID_1448_" fill="#266ED0" d="M462.7,262.9c-1.4,0.9-2.6,0.7-3.5-0.7l-23.1-35.5l-72.9-40.4c-1.7-1.1-1.8-2.5-0.1-3.6
		l15-9.7c1.1-0.7,2.2-0.6,3.3,0.1l53.2,32.1l-8-61.5c-0.2-1.3,0.1-2.3,1.4-3.1l15-9.7c1.6-1,2.8-0.4,3.1,1.6l7.7,83.2l22.9,35.2
		c0.9,1.4,0.7,2.6-0.7,3.5L462.7,262.9z"/>
	<path id="XMLID_1450_" fill="#266ED0" d="M636.7,135.3c10.4,28-5.4,46.4-24.7,53.6c-19.3,7.2-43.4,3.7-53.9-24.4l-15-40.3
		c-10.2-27.4,5.8-45.9,25-53c19.3-7.2,43.3-3.6,53.5,23.8L636.7,135.3z M577.1,158.3c5.9,15.9,18.7,16.2,28.3,12.7
		c9.6-3.6,18.9-12.1,13-28l-15.1-40.6C597.2,86,584.6,85.8,575,89.3s-19.1,12-13,28.4L577.1,158.3z"/>
	<path id="XMLID_1453_" fill="#266ED0" d="M740,44.7c0.3,1.5-0.4,2.5-2,2.8l-53.1,10.8l7.1,34.6l46.1-9.4c1.5-0.3,2.5,0.4,2.8,2
		l2.7,13.3c0.3,1.7-0.3,2.7-1.8,3l-46.1,9.4l9.2,45.1c0.3,1.7-0.3,2.7-1.8,3l-15.3,3.1c-1.5,0.3-2.5-0.4-2.8-2L661.6,46.5
		c-0.3-1.7,0.3-2.7,1.8-3l70.8-14.4c1.7-0.3,2.7,0.3,3,2L740,44.7z"/>
	<path id="XMLID_1455_" fill="#266ED0" d="M910.6,78.4c11.4,5.2,17,15.5,16.6,28.5c-0.6,22.9-16.2,36-42.5,35.3l-44.2-1.1
		c-1.5,0-2.4-0.9-2.3-2.6L841,22.1c0-1.7,0.9-2.5,2.4-2.5l44.2,1.1c23.1,0.6,36.1,13,35.6,34.2C923,65.6,918.3,74,910.6,78.4z
		 M885,123.9c12.2,0.3,21-4.6,21.3-17.7c0.3-10.9-5.8-18.2-20.6-18.5l-25.8-0.6l-0.9,36.2L885,123.9z M886.5,39.1L861,38.5
		l-0.8,30.8l25.5,0.6c9.5,0.2,16.4-4.2,16.7-15.1C902.7,44.4,896,39.3,886.5,39.1z"/>
	<path id="XMLID_1459_" fill="#266ED0" d="M961.6,148.4c-1.5-0.3-2.2-1.3-1.9-2.9l20.8-114.6c0.3-1.7,1.3-2.4,2.8-2.1l15.6,2.8
		c1.5,0.3,2.2,1.3,1.9,2.9L982.9,133l49.2,8.9c1.7,0.3,2.4,1.3,2.1,2.8l-2.5,13.7c-0.3,1.7-1.3,2.4-3,2.1L961.6,148.4z"/>
	<path id="XMLID_1461_" fill="#266ED0" d="M1157.3,154.5c-9.8,28.3-31.8,39-60.6,29.1c-28.8-9.9-39.5-32-29.7-60.3l10.2-29.6
		c9.8-28.3,31.8-38.8,60.5-28.9c28.8,9.9,39.5,31.8,29.8,60.1L1157.3,154.5z M1086.7,130.2c-6,17.4-0.4,29.3,16.3,35.1
		s28.5-0.2,34.5-17.6l10.2-29.4c6-17.4,0.5-29.5-16.2-35.3s-28.5,0.4-34.5,17.7L1086.7,130.2z"/>
	<path id="XMLID_1464_" fill="#266ED0" d="M1211.4,234.8c-22.2-12.1-34.8-34.2-20.5-60.5l18.5-34c14.2-26.1,39.9-27.8,61.7-16
		c11.5,6.3,21,16.1,26.5,27.4c0.6,1.3,0.2,2.4-1.2,3.2l-12.5,6.3c-1.4,0.8-2.5,0.4-3.5-1.1c-4.2-8.3-11-14.7-18.6-18.8
		c-14.5-7.9-27.2-4.4-34.5,8.9l-18.2,33.4c-7.5,13.7-3.2,26.1,11.3,34c8.5,4.6,19.2,7.1,29,5.7c1.8-0.2,2.6,0.5,2.7,2.2l1.5,14
		c0,1.8-0.6,2.8-2,3C1238.1,244.7,1223.9,241.6,1211.4,234.8z"/>
	<path id="XMLID_1466_" fill="#266ED0" d="M1273.5,270.1c-1.2-0.9-1.4-2.1-0.3-3.5l71.3-92c1-1.3,2.2-1.5,3.4-0.6l12.4,9.6
		c1.2,0.9,1.4,2.1,0.3,3.5l-30.2,39l64.4-13.7c1.4-0.2,2.5,0,3.4,0.7l15.7,12.2c1.7,1.4,1.6,2.7-0.7,3.4l-67,12.8l-0.8,80.7
		c-0.1,2.3-1.6,2.6-3.1,1.5l-15.7-12.2c-1.2-0.9-1.7-2-1.5-3.1l1.3-63.3l-12.3,2l-24.9,32.1c-1,1.3-2.2,1.5-3.4,0.6L1273.5,270.1z"
		/>
	<path id="XMLID_1468_" fill="#266ED0" d="M1386.4,371.9c-17.4-18.4-22.6-43.3-0.9-63.9l28.1-26.7c21.6-20.5,46.5-14.2,63.6,3.8
		c9,9.5,15.1,21.8,16.8,34.2c0.2,1.4-0.5,2.4-2.1,2.7l-13.9,2.2c-1.6,0.3-2.5-0.4-3-2.1c-1.4-9.2-5.9-17.3-11.9-23.6
		c-11.4-12-24.6-12.5-35.5-2.1l-27.6,26.2c-11.3,10.8-11.1,23.9,0.3,35.8c6.7,7,16,12.7,25.8,14.4c1.8,0.4,2.4,1.3,1.8,2.9
		l-2.9,13.8c-0.5,1.7-1.4,2.5-2.8,2.2C1408.8,389.6,1396.2,382.3,1386.4,371.9z"/>
	<path id="XMLID_1470_" fill="#266ED0" d="M1570.4,412.5c1.4-1,2.6-0.7,3.4,0.5l8.7,13c0.9,1.3,0.6,2.4-0.8,3.4l-96.6,65.1
		c-1.4,0.9-2.6,0.7-3.4-0.5l-8.7-13c-0.9-1.3-0.6-2.4,0.8-3.4l41-27.6l-26.8-39.8l-41,27.6c-1.4,1-2.6,0.7-3.4-0.5l-8.7-13
		c-0.9-1.3-0.6-2.4,0.8-3.4l96.6-65.1c1.4-1,2.6-0.7,3.4,0.5l8.7,13c0.9,1.3,0.6,2.4-0.8,3.4l-39.9,26.9l26.8,39.8L1570.4,412.5z"/>
	<path id="XMLID_1472_" fill="#266ED0" d="M1497.4,520.6c-0.8-1.7-0.1-2.7,1.8-3l123.1-10.5c1.5-0.1,2.4,0.4,3,1.6l7.9,17.7
		c0.5,1.1,0.3,2.3-0.7,3.3l-89.7,85c-1.5,1.2-2.7,1-3.5-0.7l-6.8-15.2c-0.6-1.4-0.4-2.6,0.7-3.5l20-18.1l-19.1-42.5l-26.8,2.9
		c-1.4,0.1-2.5-0.6-3-1.8L1497.4,520.6z M1553.4,532.4l14.3,32l41.2-37.3l-0.3-0.6L1553.4,532.4z"/>
	<path id="XMLID_1475_" fill="#266ED0" d="M1555.7,661.5c-1.6,0.5-2.7-0.1-3.1-1.5l-4.6-15c-0.4-1.5,0.1-2.5,1.7-3l111.4-33.9
		c1.6-0.5,2.7,0.1,3.1,1.5l4.6,15c0.4,1.5-0.1,2.5-1.7,3L1555.7,661.5z"/>
	<path id="XMLID_1477_" fill="#266ED0" d="M1565.1,703.1c-0.2-1.5,0.5-2.5,2.1-2.8l114.9-18.7c1.7-0.3,2.7,0.4,2.9,1.9l2.8,16.9
		c0.2,1.2-0.1,2.3-1.2,3.3l-51.7,42c-9.1,7.5-19.2,15.5-27.6,21.7l0.2,0.5c14.1-3.5,31.1-6.6,45.2-8.9l40.9-6.7
		c1.7-0.3,2.7,0.4,2.9,2.1l2.5,15.1c0.3,1.7-0.4,2.7-2.1,2.9L1582,791.1c-1.7,0.3-2.7-0.4-2.9-2.1l-2.8-16.9
		c-0.2-1.2,0.1-2.3,1.2-3.1l47.4-40.3c9.1-7.8,20.8-17,30.1-23.3l-0.2-0.5c-14.5,3.2-31.6,6.7-45.9,9l-38.4,6.3
		c-1.7,0.3-2.7-0.4-2.9-1.9L1565.1,703.1z"/>
	<path id="XMLID_1479_" fill="#266ED0" d="M1583.2,867.5c0.2-1.9,1.2-2.5,3-1.8l113,50c1.3,0.6,1.9,1.5,1.8,2.9l-1.6,19.3
		c-0.1,1.2-0.9,2.1-2.3,2.5l-119.5,31.3c-1.9,0.4-2.9-0.4-2.7-2.3l1.3-16.6c0.1-1.5,0.9-2.5,2.3-2.7l26.3-6.2l3.7-46.4l-24.9-10.4
		c-1.3-0.6-1.9-1.7-1.8-3L1583.2,867.5z M1626.6,904.7l-2.8,34.9l54.1-12.9l0.1-0.7L1626.6,904.7z"/>
	<path id="XMLID_1482_" fill="#266ED0" d="M1569.1,999.8c0.4-1.5,1.4-2.1,3.1-1.7l112.7,29.3c1.6,0.4,2.3,1.5,1.9,2.9l-4.3,16.6
		c-0.3,1.2-1.1,2-2.4,2.5l-64.3,17.5c-11.4,3.2-23.8,6.5-34.1,8.7v0.5c14.3,2.5,31.2,6.5,45,10.1l40.1,10.4c1.6,0.4,2.3,1.5,1.8,3.1
		l-3.9,14.8c-0.4,1.6-1.5,2.3-3.1,1.8l-112.7-29.3c-1.6-0.4-2.3-1.5-1.8-3.1l4.3-16.6c0.3-1.2,1.1-2,2.4-2.4l59.6-17.7
		c11.5-3.5,25.9-7.1,37-9.2v-0.5c-14.5-2.9-31.6-6.6-45.6-10.3l-37.7-9.8c-1.6-0.4-2.3-1.5-1.9-2.9L1569.1,999.8z"/>
	<path id="XMLID_1484_" fill="#266ED0" d="M1532.3,1125.5c0.6-1.4,1.8-1.8,3.3-1.1l105.8,48.6c1.5,0.7,2,1.8,1.3,3.2l-17.6,38.3
		c-11.7,25.5-32.8,35.5-59.9,23l-29.3-13.5c-26.7-12.3-32.9-34.8-21.1-60.2L1532.3,1125.5z M1542.1,1150.1l-10,21.8
		c-6.8,14.8-3,25.7,12.4,32.8l29.7,13.6c15.6,7.2,26.9,3.4,33.8-11.6l10-21.8L1542.1,1150.1z"/>
	<path id="XMLID_1487_" fill="#266ED0" d="M1438.1,1296.7c-1.4-1-1.6-2.2-0.6-3.4l9.3-12.6c0.9-1.2,2.1-1.4,3.5-0.4l93.9,68.9
		c1.4,1,1.6,2.2,0.6,3.4l-9.3,12.6c-0.9,1.2-2.1,1.4-3.5,0.4L1438.1,1296.7z"/>
	<path id="XMLID_1489_" fill="#266ED0" d="M1380.3,1357.4c17.4-18.5,41.9-25,63.7-4.5l28.2,26.6c21.7,20.4,16.8,45.7-0.2,63.7
		c-9,9.5-20.9,16.3-33.2,18.7c-1.4,0.3-2.4-0.4-2.8-2l-2.9-13.7c-0.4-1.6,0.3-2.5,2-3.1c9.1-2,17-6.9,22.9-13.2
		c11.3-12,11.1-25.2,0.1-35.6l-27.7-26.1c-11.4-10.7-24.5-9.7-35.8,2.3c-6.6,7.1-11.8,16.7-12.9,26.6c-0.3,1.8-1.1,2.4-2.8,2
		l-13.9-2.1c-1.7-0.4-2.6-1.2-2.4-2.7C1363.9,1380.7,1370.5,1367.8,1380.3,1357.4z"/>
	<path id="XMLID_1491_" fill="#266ED0" d="M1288.1,1497.9c-18.1-23.8-14.9-48.1,9.3-66.5c24.2-18.5,48.5-15.2,66.6,8.6l19,24.9
		c18.1,23.8,14.8,48-9.4,66.4c-24.2,18.5-48.4,15.3-66.5-8.5L1288.1,1497.9z M1347.4,1452.6c-11.1-14.6-24.2-16.6-38.3-5.9
		c-14.1,10.7-15.6,23.9-4.4,38.5l18.9,24.7c11.1,14.6,24.3,16.7,38.4,6c14.1-10.7,15.5-24,4.3-38.6L1347.4,1452.6z"/>
</g>
<circle id="XMLID_42_" fill="none" stroke="#266ED0" stroke-width="39" cx="921.5" cy="921.5" r="902"/>
<polygon id="XMLID_40_" fill="#266ED0" points="917.5,1656.3 932.4,1682.3 961.9,1688.5 941.6,1710.6 944.9,1740.7 917.5,1728.1 
	890.1,1740.7 893.4,1710.6 873.1,1688.5 902.6,1682.3 "/>
<path fill="#266ED0" d="M565.5,921.5h356v474c-101.4-45-175-85.6-221-122c-69-54.6-103-107-119-147
	C570.8,1099.8,565.5,1031.5,565.5,921.5z"/>
<path fill="#FFFFFF" d="M834.2,1154.1c-5.6-0.5-9.1-1.4-10.5-2.7s-4.5-7-9.4-17l-55.5-120.9h-10.3l-55.1,120.8
	c-4.6,10-7.6,15.8-9,17.2s-4.7,2.3-10.1,2.6l-1.9,0.1v9.3H712v-9.3l-1.9-0.1c-1.9-0.1-3.2-0.2-3.8-0.3c-4.2,0-6.3-1.1-6.3-3.3
	c0-2.9,1.8-8.3,5.5-16.2l7.5-16h62.4l7.3,15.9c3.9,8.6,5.8,14,5.7,16c-0.1,2.1-4.4,3.4-12.8,3.9l-1.9,0.1v9.3h61.7v-9.3
	L834.2,1154.1z M717.6,1108.3l26.1-57.8l27,57.8H717.6z"/>
<path id="Path" fill="#266ED0" d="M1115.5,1163.5h-63v-9.4l1.9-0.1c6.7-0.5,10.8-1.6,12.1-3.5c1.3-1.8,2-7.3,2-16.3v-90.7
	c0-9-0.7-14.4-2-16.2c-1.3-1.8-5.4-3-12.2-3.5l-1.9-0.1v-9.3h63v9.3l-1.8,0.1c-6.9,0.5-11,1.7-12.3,3.5c-1.3,1.8-2,7.2-2,16.2v90.7
	c0,9,0.7,14.4,2,16.3c1.3,1.8,5.4,3,12.2,3.5l1.8,0.1V1163.5z"/>
<path id="Path_1_" fill="#266ED0" d="M679.5,671.5h63.3v9.2l-1.8,0.1c-6.8,0.5-10.9,1.7-12.2,3.5s-2,7.2-2,16.1v64.1
	c0,17.8,2.6,30.5,7.8,38c5.2,7.5,14,11.2,26.4,11.2c13.2,0,22.8-4,28.8-11.9c6-7.9,9-20.6,9-38.1v-63.3c0-9-0.7-14.3-2-16.1
	s-5.4-3-12.3-3.5l-1.8-0.1v-9.2h46.8v9.2l-1.8,0.1c-6.8,0.5-10.8,1.7-12.1,3.5s-1.9,7.2-1.9,16.1v60.9c0,21.3-4.6,37-13.8,47
	c-9.2,10.1-23.5,15.1-43,15.1c-40.9,0-61.4-20-61.4-60.1v-62.2c0-9-0.7-14.4-2-16.2c-1.3-1.9-5.4-3-12.2-3.4l-1.9-0.2V671.5z"/>
<path id="Combined-Shape_1_" fill="#266ED0" d="M1281.5,537.5v384h-360v-384H1281.5z M1101.3,744.7c11.7-4.2,20.5-9.5,26.3-15.9
	s8.7-13.9,8.7-22.4c0-11-3.6-19.2-10.7-24.7c-7.2-5.5-17.9-8.2-32.2-8.2h-68.9v9.2l1.9,0.1c6.8,0.5,10.8,1.7,12.1,3.5
	c1.3,1.8,1.9,7.2,1.9,16.1v90.1c0,8.9-0.7,14.3-2,16.2c-1.3,1.8-5.4,3-12.1,3.4l-1.9,0.1v9.3h69.2c16.3,0,28.5-3.1,36.6-9.2
	s12.2-15.4,12.2-27.7c0-10.5-3.4-19.1-10.3-25.8S1115,747.4,1101.3,744.7z M1069.8,750.6v42c0,7.5,0.9,12.4,2.7,14.5
	c1.8,2.2,5.8,3.2,12,3.2c7.9,0,14.3-2.5,19.1-7.6c4.8-5.1,7.2-11.8,7.2-20.1c0-9.6-3.2-17.3-9.6-23.2s-14.8-8.8-25.1-8.8H1069.8z
	 M1069.8,740.7h6.1c9.9,0,17.3-2.5,22.3-7.5c4.9-5,7.4-12.4,7.4-22.4c0-9.2-2.5-16.1-7.4-20.7c-4.9-4.6-12.3-6.9-22.2-6.9h-6.2
	V740.7z"/>
</svg>
