<?xml version="1.0" encoding="UTF-8"?>
<svg width="210px" height="210px" viewBox="0 0 210 210" version="1.1" xmlns="http://www.w3.org/2000/svg" xmlns:xlink="http://www.w3.org/1999/xlink">
    <!-- Generator: Sketch 51 (57462) - http://www.bohemiancoding.com/sketch -->
    <title>google</title>
    <desc>Created with Sketch.</desc>
    <defs></defs>
    <g id="google" stroke="none" stroke-width="1" fill="none" fill-rule="evenodd">
        <g id="google-plus-3-(2)" transform="translate(4.000000, 1.000000)" fill="#FFFFFF" fill-rule="nonzero">
            <path d="M103.571429,89.1428571 L103.571429,124.8 L162.311224,124.8 C159.943878,140.102857 144.556122,169.668571 103.571429,169.668571 C68.2091837,169.668571 39.3571429,140.251429 39.3571429,104 C39.3571429,67.7485714 68.2091837,38.3314286 103.571429,38.3314286 C123.693878,38.3314286 137.158163,46.9485714 144.852041,54.3771429 L172.964286,27.1885714 C154.913265,10.2514286 131.535714,0 103.571429,0 C46.3112245,0 0,46.5028571 0,104 C0,161.497143 46.3112245,208 103.571429,208 C163.346939,208 203,165.805714 203,106.377143 C203,99.5428571 202.260204,94.3428571 201.372449,89.1428571 L103.571429,89.1428571 Z" id="Shape"></path>
        </g>
    </g>
</svg>