<?xml version="1.0" encoding="UTF-8"?>
<svg width="50px" height="50px" viewBox="0 0 50 50" version="1.1" xmlns="http://www.w3.org/2000/svg" xmlns:xlink="http://www.w3.org/1999/xlink">
    <!-- Generator: sketchtool 50.2 (55047) - http://www.bohemiancoding.com/sketch -->
    <title>821FBD4B-E799-4753-B46A-F032FE7DCF47</title>
    <desc>Created with sketchtool.</desc>
    <defs></defs>
    <g id="Page-1" stroke="none" stroke-width="1" fill="none" fill-rule="evenodd">
        <g id="sign_up_1" transform="translate(-885.000000, -768.000000)">
            <g id="Group-10" transform="translate(160.000000, 140.000000)">
                <g id="popup" transform="translate(590.000000, 0.000000)">
                    <g id="Group-6">
                        <g id="Group-9" transform="translate(65.000000, 628.000000)">
                            <g id="google" transform="translate(70.000000, 0.000000)">
                                <circle id="Oval-4" fill="#DD4B39" cx="25" cy="25" r="25"></circle>
                                <path d="M14.0068935,25.0135685 C13.9103153,29.6030809 17.1367062,33.9828984 21.574935,35.4112961 C25.7554601,36.7873891 30.8954579,35.7579346 33.677298,32.2501815 C35.7083518,29.7923293 36.1698888,26.5156685 35.9500399,23.4544086 C32.3698526,23.4230257 28.7896652,23.4334867 25.2148164,23.4387171 C25.2089925,24.6883274 25.2148164,25.9331827 25.2201549,27.182793 C27.3638023,27.2408039 29.5079352,27.2141759 31.6515826,27.2564953 C31.1104536,29.0733754 29.8777471,30.7642484 28.0068481,31.4204365 C24.3946297,32.9800718 19.7855693,30.9425604 18.6489556,27.2298674 C17.276963,23.6745644 19.5230125,19.3841407 23.2313237,18.3499312 C25.5307581,17.5572751 27.8995929,18.4497859 29.8670701,19.620939 C30.8639123,18.7070307 31.7966926,17.7303566 32.7129721,16.7432215 C30.4775996,14.9106499 27.6050052,13.7870468 24.651848,14.0338305 C18.8576422,14.1013513 13.7870447,19.3422968 14.0068935,25.0135685 Z" id="svg_4-path" fill="#FFFFFF"></path>
                            </g>
                        </g>
                    </g>
                </g>
            </g>
        </g>
    </g>
</svg>