<?xml version="1.0" encoding="UTF-8"?>
<svg width="125px" height="125px" viewBox="0 0 125 125" version="1.1" xmlns="http://www.w3.org/2000/svg" xmlns:xlink="http://www.w3.org/1999/xlink">
    <!-- Generator: Sketch 51.2 (57519) - http://www.bohemiancoding.com/sketch -->
    <title>kakaotalk</title>
    <desc>Created with Sketch.</desc>
    <defs></defs>
    <g id="Page-1" stroke="none" stroke-width="1" fill="none" fill-rule="evenodd">
        <g id="Artboard" transform="translate(-81.000000, -63.000000)" fill="#FFFFFF" fill-rule="nonzero">
            <g id="kakaotalk" transform="translate(81.000000, 63.000000)">
                <path d="M125,115.234375 C125,120.62793 120.62793,125 115.234375,125 L9.765625,125 C4.37207031,125 0,120.62793 0,115.234375 L0,9.765625 C0,4.37207031 4.37207031,0 9.765625,0 L115.234375,0 C120.62793,0 125,4.37207031 125,9.765625 L125,115.234375 Z M62.5,17.578125 C34.4541016,17.578125 11.71875,35.5043945 11.71875,57.6171875 C11.71875,71.9135742 21.2236328,84.4580078 35.5214844,91.5415039 C34.7436523,94.2241211 30.5229492,108.799316 30.3549805,109.944336 C30.3549805,109.944336 30.2539062,110.804688 30.8110352,111.132812 C31.3681641,111.460938 32.0234375,111.206055 32.0234375,111.206055 C33.6210938,110.98291 50.550293,99.0913086 53.4804687,97.0263672 C56.4077148,97.440918 59.421875,97.65625 62.5,97.65625 C90.5458984,97.65625 113.28125,79.7304688 113.28125,57.6171875 C113.28125,35.5043945 90.5458984,17.578125 62.5,17.578125 Z" id="Combined-Shape"></path>
                <path d="M34.4238281,71.5942383 C32.8081055,71.5942383 31.4941406,70.3393555 31.4941406,68.7963867 L31.4941406,51.3916016 L26.9228516,51.3916016 C25.3374023,51.3916016 24.0478516,50.1044922 24.0478516,48.5229492 C24.0478516,46.9414062 25.3378906,45.6542969 26.9228516,45.6542969 L41.9248047,45.6542969 C43.5102539,45.6542969 44.7998047,46.9414062 44.7998047,48.5229492 C44.7998047,50.1044922 43.5097656,51.3916016 41.9248047,51.3916016 L37.3535156,51.3916016 L37.3535156,68.7963867 C37.3535156,70.3393555 36.0395508,71.5942383 34.4238281,71.5942383 Z M60.1132812,71.5561523 C58.8916016,71.5561523 57.9570312,71.0600586 57.675293,70.262207 L56.2246094,66.4643555 L47.2910156,66.4638672 L45.8393555,70.2641602 C45.5585938,71.0605469 44.6245117,71.5561523 43.402832,71.5561523 C42.7602201,71.5568104 42.1250199,71.4189116 41.5405273,71.1518555 C40.7329102,70.7792969 39.956543,69.7548828 40.8461914,66.9916992 L47.8540039,48.5463867 C48.3476563,47.1435547 49.847168,45.6982422 51.7553711,45.6547852 C53.6689453,45.6977539 55.168457,47.1435547 55.6630859,48.5493164 L62.6679688,66.9863281 C63.5595703,69.7558594 62.7832031,70.7807617 61.9755859,71.1523437 C61.3909541,71.4189256 60.7558231,71.5566428 60.1132812,71.5561523 C60.112793,71.5561523 60.1132812,71.5561523 60.1132812,71.5561523 Z M54.684082,61.2749023 L51.7578125,52.9619141 L48.831543,61.2749023 L54.684082,61.2749023 Z M67.3828125,71.1669922 C65.8344727,71.1669922 64.5751953,69.9619141 64.5751953,68.4814453 L64.5751953,48.5839844 C64.5751953,46.9682617 65.9169922,45.6542969 67.565918,45.6542969 C69.2148438,45.6542969 70.5566406,46.9682617 70.5566406,48.5839844 L70.5566406,65.7958984 L76.7822266,65.7958984 C78.3305664,65.7958984 79.5898438,67.0009766 79.5898438,68.4814453 C79.5898438,69.9619141 78.3305664,71.1669922 76.7822266,71.1669922 L67.3828125,71.1669922 Z M83.6591797,71.5561523 C82.043457,71.5561523 80.7294922,70.2421875 80.7294922,68.6264648 L80.7294922,48.5839844 C80.7294922,46.9682617 82.043457,45.6542969 83.6591797,45.6542969 C85.2749023,45.6542969 86.5888672,46.9682617 86.5888672,48.5839844 L86.5888672,54.8808594 L94.7626953,46.7070312 C95.1831055,46.2866211 95.7607422,46.0551758 96.3876953,46.0551758 C97.1191406,46.0551758 97.8535156,46.3706055 98.4038086,46.9204102 C98.9169922,47.4331055 99.2231445,48.0927734 99.2651367,48.777832 C99.3076172,49.46875 99.0776367,50.1020508 98.6186523,50.5615234 L91.9423828,57.2368164 L99.1538086,66.7905273 C99.6241165,67.4096127 99.8267173,68.1913492 99.7163086,68.9609375 C99.6108213,69.7310054 99.2014665,70.4268031 98.5795898,70.8930664 C98.0729622,71.2781526 97.4537479,71.48593 96.8173828,71.484375 C95.8968836,71.4886589 95.0287587,71.0566793 94.4770508,70.3198242 L87.6064453,61.2163086 L86.5898438,62.2329102 L86.5898438,68.625 C86.5879608,70.2428596 85.2770389,71.5539999 83.6591797,71.5561523 Z" id="Shape"></path>
            </g>
        </g>
    </g>
</svg>