<?xml version="1.0" encoding="UTF-8"?>
<svg width="50px" height="50px" viewBox="0 0 50 50" version="1.1" xmlns="http://www.w3.org/2000/svg" xmlns:xlink="http://www.w3.org/1999/xlink">
    <!-- Generator: Sketch 51.2 (57519) - http://www.bohemiancoding.com/sketch -->
    <title>kakao-circle-black</title>
    <desc>Created with Sketch.</desc>
    <defs></defs>
    <g id="Page-1" stroke="none" stroke-width="1" fill="none" fill-rule="evenodd">
        <g id="Artboard" transform="translate(-18.000000, -18.000000)">
            <g id="kakao-circle-black" transform="translate(18.000000, 18.000000)">
                <g id="fb" fill="#FFE812">
                    <circle id="Oval-4-Copy-5" cx="25" cy="25" r="25"></circle>
                </g>
                <g id="kakaotalk" transform="translate(9.000000, 10.000000)" fill-rule="nonzero">
                    <path d="M16,0.205479452 C7.16338462,0.205479452 0,5.86330479 0,12.8424658 C0,17.3546404 2.99476923,21.3138699 7.49969231,23.5495377 C7.25461538,24.3962158 5.92476923,28.996387 5.87184615,29.357774 C5.87184615,29.357774 5.84,29.6293151 6.01553846,29.7328767 C6.19107692,29.8364384 6.39753846,29.7559932 6.39753846,29.7559932 C6.90092308,29.6855651 12.2349231,25.9323801 13.1581538,25.2806507 C14.0804615,25.4114897 15.0301538,25.4794521 16,25.4794521 C24.8366154,25.4794521 32,19.8217808 32,12.8424658 C32,5.86330479 24.8366154,0.205479452 16,0.205479452 Z" id="Shape" fill="#000000"></path>
                    <path d="M7.15384615,17.2538527 C6.64476923,17.2538527 6.23076923,16.8577911 6.23076923,16.3708048 L6.23076923,10.8775685 L4.79046154,10.8775685 C4.29092308,10.8775685 3.88461538,10.4713356 3.88461538,9.97217466 C3.88461538,9.4730137 4.29107692,9.06678082 4.79046154,9.06678082 L9.51723077,9.06678082 C10.0167692,9.06678082 10.4230769,9.4730137 10.4230769,9.97217466 C10.4230769,10.4713356 10.0166154,10.8775685 9.51723077,10.8775685 L8.07692308,10.8775685 L8.07692308,16.3708048 C8.07692308,16.8577911 7.66292308,17.2538527 7.15384615,17.2538527 Z M15.248,17.2418322 C14.8630769,17.2418322 14.5686154,17.0852568 14.4798462,16.8334418 L14.0227692,15.6347774 L11.208,15.6346233 L10.7506154,16.8340582 C10.6621538,17.085411 10.3678462,17.2418322 9.98292308,17.2418322 C9.78045087,17.2420399 9.58031397,17.1985168 9.39615385,17.1142295 C9.14169231,16.9966438 8.89707692,16.6733219 9.17738462,15.8012158 L11.3853846,9.97957192 C11.5409231,9.53681507 12.0133846,9.08065068 12.6146154,9.06693493 C13.2175385,9.08049658 13.69,9.53681507 13.8458462,9.98049658 L16.0529231,15.7995205 C16.3338462,16.6736301 16.0892308,16.9971062 15.8347692,17.1143836 C15.6505652,17.1985212 15.4504501,17.241987 15.248,17.2418322 C15.2478462,17.2418322 15.248,17.2418322 15.248,17.2418322 Z M13.5373846,13.9969007 L12.6153846,11.3731849 L11.6933846,13.9969007 L13.5373846,13.9969007 Z M17.5384615,17.1190068 C17.0506154,17.1190068 16.6538462,16.7386644 16.6538462,16.2714041 L16.6538462,9.99143836 C16.6538462,9.48148973 17.0766154,9.06678082 17.5961538,9.06678082 C18.1156923,9.06678082 18.5384615,9.48148973 18.5384615,9.99143836 L18.5384615,15.4238014 L20.5,15.4238014 C20.9878462,15.4238014 21.3846154,15.8041438 21.3846154,16.2714041 C21.3846154,16.7386644 20.9878462,17.1190068 20.5,17.1190068 L17.5384615,17.1190068 Z M22.6667692,17.2418322 C22.1576923,17.2418322 21.7436923,16.8271233 21.7436923,16.3171747 L21.7436923,9.99143836 C21.7436923,9.48148973 22.1576923,9.06678082 22.6667692,9.06678082 C23.1758462,9.06678082 23.5898462,9.48148973 23.5898462,9.99143836 L23.5898462,11.9788356 L26.1652308,9.3990411 C26.2976923,9.26635274 26.4796923,9.19330479 26.6772308,9.19330479 C26.9076923,9.19330479 27.1390769,9.29285959 27.3124615,9.46638699 C27.4741538,9.62820205 27.5706154,9.83640411 27.5838462,10.0526199 C27.5972308,10.2706849 27.5247692,10.4705651 27.3801538,10.6155822 L25.2766154,12.7224144 L27.5487692,15.7377226 C27.6969524,15.9331161 27.7607872,16.179845 27.726,16.4227397 C27.6927634,16.6657858 27.5637851,16.885391 27.3678462,17.0325514 C27.2082195,17.1540909 27.0131193,17.2196689 26.8126154,17.2191781 C26.5225873,17.2205301 26.2490612,17.0841903 26.0752308,16.8516267 L23.9104615,13.9784075 L23.5901538,14.2992637 L23.5901538,16.3167123 C23.5895606,16.8273354 23.1765193,17.2411528 22.6667692,17.2418322 Z" id="Shape" fill="#FFE812"></path>
                </g>
            </g>
        </g>
    </g>
</svg>