<?xml version="1.0" encoding="UTF-8"?>
<svg width="124px" height="125px" viewBox="0 0 124 125" version="1.1" xmlns="http://www.w3.org/2000/svg" xmlns:xlink="http://www.w3.org/1999/xlink">
    <!-- Generator: Sketch 51.2 (57519) - http://www.bohemiancoding.com/sketch -->
    <title>linkedin</title>
    <desc>Created with Sketch.</desc>
    <defs></defs>
    <g id="Page-1" stroke="none" stroke-width="1" fill="none" fill-rule="evenodd">
        <g id="Artboard" transform="translate(-254.000000, -63.000000)" fill="#FFFFFF" fill-rule="nonzero">
            <g id="linkedin" transform="translate(254.000000, 63.000000)">
                <path d="M0.431818182,9.16814103 C0.431818182,4.25910256 4.50324675,0.274884615 9.52272727,0.274884615 L114.340909,0.274884615 C119.362013,0.274884615 123.431818,4.25910256 123.431818,9.16814103 L123.431818,115.530641 C123.431818,120.441308 119.362013,124.422269 114.340909,124.422269 L9.52272727,124.422269 C4.50324675,124.422269 0.431818182,120.441308 0.431818182,115.532269 L0.431818182,9.16651282 L0.431818182,9.16814103 Z M37.7175325,104.198333 L37.7175325,48.1392308 L19.1396104,48.1392308 L19.1396104,104.198333 L37.7191558,104.198333 L37.7175325,104.198333 Z M28.4318182,40.4866667 C34.9090909,40.4866667 38.9415584,36.1816923 38.9415584,30.8021026 C38.8198052,25.3003974 34.9090909,21.1159103 28.5551948,21.1159103 C22.1964286,21.1159103 18.0438312,25.3003974 18.0438312,30.8021026 C18.0438312,36.1816923 22.0746753,40.4866667 28.3100649,40.4866667 L28.4301948,40.4866667 L28.4318182,40.4866667 Z M48,104.198333 L66.5762987,104.198333 L66.5762987,72.8960897 C66.5762987,71.2222949 66.6980519,69.5452436 67.1883117,68.350141 C68.5308442,65.0009231 71.5876623,61.5344744 76.7207792,61.5344744 C83.4415584,61.5344744 86.1314935,66.6747179 86.1314935,74.2116795 L86.1314935,104.198333 L104.707792,104.198333 L104.707792,72.0559359 C104.707792,54.8376667 95.5438312,46.8252692 83.3214286,46.8252692 C73.3003247,46.8252692 68.8993506,52.4425769 66.4545455,56.268859 L66.5779221,56.268859 L66.5779221,48.140859 L48.0016234,48.140859 C48.2435065,53.3999615 48,104.199962 48,104.199962 L48,104.198333 Z" id="Combined-Shape"></path>
            </g>
        </g>
    </g>
</svg>