<?xml version="1.0" encoding="UTF-8"?>
<svg width="50px" height="50px" viewBox="0 0 50 50" version="1.1" xmlns="http://www.w3.org/2000/svg" xmlns:xlink="http://www.w3.org/1999/xlink">
    <!-- Generator: Sketch 51.2 (57519) - http://www.bohemiancoding.com/sketch -->
    <title>linked-circle-blue</title>
    <desc>Created with Sketch.</desc>
    <defs></defs>
    <g id="Page-1" stroke="none" stroke-width="1" fill="none" fill-rule="evenodd">
        <g id="Artboard" transform="translate(-146.000000, -18.000000)">
            <g id="linked-circle-blue" transform="translate(146.000000, 18.000000)">
                <g id="fb">
                    <g id="Group-2">
                        <circle id="Oval-4-Copy-5" fill="#127AB6" cx="25" cy="25" r="25"></circle>
                        <g id="linkedin" transform="translate(13.000000, 14.000000)" fill="#FFFFFF" fill-rule="nonzero">
                            <path d="M5.71223759,22.6397212 L5.71223759,7.56413494 L0.651584977,7.56413494 L0.651584977,22.6397212 L5.71267978,22.6397212 L5.71223759,22.6397212 Z M3.1827957,5.50618386 C4.94721407,5.50618386 6.045664,4.3484769 6.045664,2.90178108 C6.01249826,1.42224559 4.94721407,0.296940446 3.21640367,0.296940446 C1.48426664,0.296940446 0.353093152,1.42224559 0.353093152,2.90178108 C0.353093152,4.3484769 1.45110086,5.50618386 3.14962993,5.50618386 L3.18235349,5.50618386 L3.1827957,5.50618386 Z M8.51319648,22.6397212 L13.5734069,22.6397212 L13.5734069,14.2218256 C13.5734069,13.7717036 13.6065726,13.3207058 13.7401201,12.9993151 C14.1058279,12.0986331 14.9385095,11.1664251 16.3367779,11.1664251 C18.1675278,11.1664251 18.90027,12.5487552 18.90027,14.5756181 L18.90027,22.6397212 L23.9604803,22.6397212 L23.9604803,13.9958889 C23.9604803,9.36549894 21.4642043,7.21078035 18.1348043,7.21078035 C15.4050412,7.21078035 14.2062095,8.72140402 13.5402411,9.75037957 L13.5738491,9.75037957 L13.5738491,7.5645728 L8.5136387,7.5645728 C8.579528,8.97886683 8.51319648,22.6401593 8.51319648,22.6401593 L8.51319648,22.6397212 Z" id="Combined-Shape"></path>
                        </g>
                    </g>
                </g>
            </g>
        </g>
    </g>
</svg>