<?xml version="1.0" encoding="UTF-8"?>
<svg width="50px" height="50px" viewBox="0 0 50 50" version="1.1" xmlns="http://www.w3.org/2000/svg" xmlns:xlink="http://www.w3.org/1999/xlink">
    <!-- Generator: sketchtool 50.2 (55047) - http://www.bohemiancoding.com/sketch -->
    <title>2B274F8E-5398-442A-AE7C-2DEE2F312D57</title>
    <desc>Created with sketchtool.</desc>
    <defs></defs>
    <g id="Page-1" stroke="none" stroke-width="1" fill="none" fill-rule="evenodd">
        <g id="sign_up_1" transform="translate(-435.000000, -768.000000)">
            <g id="Group-10" transform="translate(160.000000, 140.000000)">
                <g id="popup">
                    <g id="Group-6">
                        <g id="Group-9" transform="translate(65.000000, 628.000000)">
                            <g id="tw" transform="translate(210.000000, 0.000000)">
                                <circle id="Oval-4-Copy-2" fill="#3FA9F5" cx="25" cy="25" r="25"></circle>
                                <path d="M36,19.1308776 C35.1916417,19.4923077 34.3213007,19.7367281 33.4083465,19.8459372 C34.3406703,19.2842904 35.0560545,18.3937161 35.3930856,17.3328277 C34.520162,17.8528711 33.5555556,18.2312026 32.5250924,18.4340195 C31.7038211,17.5512459 30.5300229,17 29.2309679,17 C26.7400364,17 24.7191407,19.0346696 24.7191407,21.5438787 C24.7191407,21.9001083 24.7578799,22.2459372 24.8353583,22.5787649 C21.0841111,22.3889491 17.7589951,20.5817985 15.5314903,17.8294691 C15.1428068,18.5029252 14.920702,19.2842904 14.920702,20.1163597 C14.920702,21.692091 15.7174385,23.0832069 16.9286846,23.8983749 C16.1900569,23.876273 15.4927511,23.6695558 14.8832541,23.3315276 L14.8832541,23.3874323 C14.8832541,25.5898158 16.4392792,27.4268689 18.5053707,27.8429036 C18.1270177,27.9495125 17.7280038,28.0028169 17.3160768,28.0028169 C17.0255327,28.0028169 16.7414451,27.9755146 16.4663967,27.9222102 C17.0410284,29.7267606 18.7068146,31.0411701 20.6825145,31.076273 C19.1381112,32.2957746 17.19082,33.0225352 15.0769502,33.0225352 C14.7128015,33.0225352 14.3525269,33.0017335 14,32.96013 C15.9976522,34.2472373 18.3710747,35 20.9188237,35 C29.2219287,35 33.7608734,28.0769231 33.7608734,22.0717226 C33.7608734,21.8741062 33.7569995,21.6764897 33.7492516,21.4827736 C34.6312144,20.8418202 35.3969596,20.0422535 36,19.1308776" id="Path" fill="#FFFFFF"></path>
                            </g>
                        </g>
                    </g>
                </g>
            </g>
        </g>
    </g>
</svg>