<?xml version="1.0" encoding="UTF-8"?>
<svg width="50px" height="50px" viewBox="0 0 50 50" version="1.1" xmlns="http://www.w3.org/2000/svg" xmlns:xlink="http://www.w3.org/1999/xlink">
    <!-- Generator: Sketch 51.2 (57519) - http://www.bohemiancoding.com/sketch -->
    <title>weibo-circle-red</title>
    <desc>Created with Sketch.</desc>
    <defs></defs>
    <g id="Page-1" stroke="none" stroke-width="1" fill="none" fill-rule="evenodd">
        <g id="Artboard" transform="translate(-210.000000, -18.000000)">
            <g id="weibo-circle-red" transform="translate(210.000000, 18.000000)">
                <g id="Group-Copy-3" fill="#FF9E00">
                    <g id="fb">
                        <g id="Group-2">
                            <circle id="Oval-4-Copy-5" cx="25" cy="25" r="25"></circle>
                        </g>
                    </g>
                </g>
                <g id="weibo" transform="translate(7.000000, 11.000000)" fill="#FFFFFF" fill-rule="nonzero">
                    <path d="M15.0857916,26.8625574 C9.14086376,27.4463607 4.00912563,24.7717049 3.6223472,20.8852295 C3.23652376,16.9997049 7.74464133,13.3761312 13.6886142,12.7909016 C19.6340195,12.2051967 24.7662352,14.8808033 25.1520586,18.765377 C25.5374045,22.6523279 21.031197,26.2768525 15.0857916,26.8625574 M26.9770798,13.9623115 C26.4714028,13.812082 26.1247347,13.708918 26.3892721,13.047623 C26.9627547,11.6109344 27.0219652,10.3720164 26.4002547,9.48775409 C25.2346668,7.83 22.0449385,7.91890165 18.3886885,9.44354098 C18.3886885,9.44116393 17.2407682,9.94367213 17.5339558,9.03706558 C18.0964558,7.23668854 18.0114601,5.72916393 17.1361948,4.85868854 C15.1531197,2.88240984 9.87813032,4.93332787 5.35425509,9.43545902 C1.96683998,12.8084918 0,16.3830984 0,19.4742131 C0,25.3868852 7.6157152,28.981459 15.0662139,28.981459 C24.8326082,28.981459 31.329531,23.3316885 31.329531,18.8466721 C31.329531,16.1363607 29.037033,14.5984098 26.9770798,13.9623115" id="Shape"></path>
                    <path d="M33.4625423,3.14245902 C31.1041489,0.539114753 27.625053,-0.453065573 24.413837,0.226295082 L24.412882,0.226295082 C23.9324841,0.328458399 23.5433218,0.678026287 23.3919887,1.1433199 C23.2406555,1.60861352 23.3501427,2.1189437 23.6792075,2.482074 C24.0082722,2.8452043 24.5069217,3.00596661 24.9873196,2.90380329 C27.2716999,2.42078688 29.7437394,3.12819671 31.4216893,4.97659015 C33.0399694,6.76210948 33.5782486,9.2717 32.8336694,11.5595902 L32.8341469,11.5600656 C32.721473,11.9055975 32.7515481,12.281568 32.9177334,12.6049884 C33.0839187,12.9284088 33.3725502,13.1726865 33.7199174,13.2839016 C34.4417957,13.5162943 35.2163366,13.1227451 35.4508702,12.4043934 L35.4513475,12.3986885 C36.4579267,9.28855738 35.8218909,5.74295082 33.4625423,3.14245902" id="Shape"></path>
                    <path d="M29.8401953,6.39663933 C28.6922751,5.12872131 26.9976125,4.64713116 25.4328311,4.9784918 C25.0089128,5.05570543 24.6606811,5.35627897 24.5237921,5.76312183 C24.3869032,6.16996472 24.4830065,6.61873339 24.7746642,6.93460682 C25.066322,7.25048024 25.5074076,7.38350196 25.9260929,7.28185247 L25.9260929,7.28280329 C26.7172931,7.11435215 27.538727,7.37808679 28.0820246,7.975 C28.6244213,8.57347552 28.8041644,9.41494344 28.5533213,10.181377 L28.5542763,10.181377 C28.3532109,10.800606 28.6941005,11.4649252 29.3158957,11.6656066 C29.9381237,11.8653601 30.6052212,11.5252941 30.8061862,10.9059016 C31.2980156,9.39077049 30.990503,7.66408198 29.8401953,6.39663933" id="Shape"></path>
                    <path d="M15.413837,19.8241148 C15.2056452,20.1787705 14.7462861,20.3489672 14.3862479,20.2011148 C14.0319397,20.0556393 13.9206813,19.6600984 14.122188,19.3120984 C14.3294249,18.966 14.7715938,18.7972295 15.1244694,18.9365246 C15.4835526,19.0672623 15.6124788,19.4680328 15.413837,19.8241148 Z M13.5195777,22.245377 C12.9446626,23.1586393 11.7131791,23.5589344 10.7853884,23.1372459 C9.87144524,22.7231639 9.60165534,21.6615738 10.1775255,20.7711312 C10.745278,19.8844918 11.9352186,19.4889508 12.8558468,19.873082 C13.78698,20.268623 14.0849427,21.3226066 13.5195777,22.245377 Z M15.6802844,15.7807541 C12.8510717,15.0476721 9.65322581,16.4515574 8.42460738,18.9336721 C7.17306875,21.4647541 8.38354201,24.2744262 11.2409274,25.1933934 C14.2019313,26.1437377 17.6915323,24.6875574 18.9048705,21.9549016 C20.1019737,19.2840492 18.6078629,16.5342787 15.6802844,15.7807541 Z" id="Shape"></path>
                </g>
            </g>
        </g>
    </g>
</svg>