<?xml version="1.0" encoding="UTF-8"?>
<svg width="124px" height="100px" viewBox="0 0 124 100" version="1.1" xmlns="http://www.w3.org/2000/svg" xmlns:xlink="http://www.w3.org/1999/xlink">
    <!-- Generator: Sketch 51.2 (57519) - http://www.bohemiancoding.com/sketch -->
    <title>weibo</title>
    <desc>Created with Sketch.</desc>
    <defs></defs>
    <g id="Page-1" stroke="none" stroke-width="1" fill="none" fill-rule="evenodd">
        <g id="Artboard" transform="translate(-454.000000, -76.000000)" fill="#FFFFFF" fill-rule="nonzero">
            <g id="weibo" transform="translate(454.000000, 76.000000)">
                <path d="M51.9621711,92.6295082 C31.4851974,94.642623 13.8092105,85.4196721 12.4769737,72.0180328 C11.1480263,58.6196721 26.6759868,46.1245902 47.1496711,44.1065574 C67.6282895,42.0868852 85.3059211,51.3131148 86.6348684,64.7081967 C87.9621711,78.1114754 72.4407895,90.6098361 51.9621711,92.6295082 M92.9210526,48.1459016 C91.1792763,47.6278689 89.9851974,47.2721311 90.8963816,44.9918033 C92.8717105,40.0377049 93.0756579,35.7655738 90.9342105,32.7163934 C86.9194079,27 75.9325658,27.3065574 63.3388158,32.5639344 C63.3388158,32.5557377 59.3848684,34.2885246 60.3947368,31.1622951 C62.3322368,24.9540984 62.0394737,19.7557377 59.0246711,16.7540984 C52.1940789,9.93934426 34.0246711,17.0114754 18.4424342,32.5360656 C6.77467105,44.1672131 0,56.4934426 0,67.152459 C0,87.5409836 26.2319079,99.9360656 51.8947368,99.9360656 C85.5345395,99.9360656 107.912829,80.4540984 107.912829,64.9885246 C107.912829,55.642623 100.016447,50.3393443 92.9210526,48.1459016" id="Shape"></path>
                <path d="M115.259868,10.8360656 C107.136513,1.85901639 95.1529605,-1.56229508 84.0921053,0.780327869 L84.0888158,0.780327869 C82.434112,1.13261517 81.0936639,2.33802168 80.5724054,3.94248243 C80.0511468,5.54694318 80.4282693,7.30670242 81.5617146,8.55887587 C82.6951598,9.81104932 84.4127304,10.3654021 86.0674342,10.0131148 C93.9358553,8.34754098 102.450658,10.7868852 108.230263,17.1606557 C113.804339,23.3176189 115.658412,31.9713793 113.09375,39.8606557 L113.095395,39.8622951 C112.707296,41.0537845 112.810888,42.3502346 113.383304,43.4654773 C113.95572,44.5807199 114.949895,45.4230569 116.146382,45.8065574 C118.632852,46.6079114 121.300715,45.2508452 122.108553,42.7737705 L122.110197,42.7540984 C125.577303,32.0295082 123.386513,19.8032787 115.259868,10.8360656" id="Shape"></path>
                <path d="M102.782895,22.057377 C98.8289474,17.6852459 92.9917763,16.0245902 87.6019737,17.1672131 C86.1418107,17.433467 84.9423459,18.4699275 84.4708395,19.8728339 C83.9993332,21.2757404 84.3303556,22.8232186 85.3349545,23.9124373 C86.3395534,25.001656 87.8588483,25.4603516 89.3009868,25.1098361 L89.3009868,25.1131148 C92.0262318,24.5322488 94.8556151,25.4416786 96.7269737,27.5 C98.5952288,29.5637087 99.2143439,32.4653222 98.3503289,35.1081967 L98.3536184,35.1081967 C97.6610599,37.2434691 98.835235,39.5342249 100.976974,40.2262295 C103.120204,40.9150348 105.417984,39.7423934 106.110197,37.6065574 C107.804276,32.3819672 106.745066,26.4278689 102.782895,22.057377" id="Shape"></path>
                <path d="M53.0921053,68.3590164 C52.375,69.5819672 50.7927632,70.1688525 49.5526316,69.6590164 C48.3322368,69.157377 47.9490132,67.7934426 48.6430921,66.5934426 C49.3569079,65.4 50.8799342,64.8180328 52.0953947,65.2983607 C53.3322368,65.7491803 53.7763158,67.1311475 53.0921053,68.3590164 Z M46.5674342,76.7081967 C44.5871711,79.857377 40.3453947,81.2377049 37.1496711,79.7836066 C34.0016447,78.3557377 33.0723684,74.695082 35.0559211,71.6245902 C37.0115132,68.5672131 41.1101974,67.2032787 44.28125,68.5278689 C47.4884868,69.8918033 48.5148026,73.5262295 46.5674342,76.7081967 Z M54.0098684,54.4163934 C44.2648026,51.8885246 33.25,56.7295082 29.0180921,65.2885246 C24.7072368,74.0163934 28.8766447,83.704918 38.71875,86.8737705 C48.9177632,90.1508197 60.9375,85.1295082 65.1167763,75.7065574 C69.2401316,66.4967213 64.09375,57.0147541 54.0098684,54.4163934 Z" id="Shape"></path>
            </g>
        </g>
    </g>
</svg>