<?xml version="1.0" encoding="UTF-8"?>
<svg width="50px" height="50px" viewBox="0 0 50 50" version="1.1" xmlns="http://www.w3.org/2000/svg" xmlns:xlink="http://www.w3.org/1999/xlink">
    <!-- Generator: sketchtool 50.2 (55047) - http://www.bohemiancoding.com/sketch -->
    <title>88A4B908-6EFE-4647-84B5-D66DCE568233</title>
    <desc>Created with sketchtool.</desc>
    <defs></defs>
    <g id="Page-1" stroke="none" stroke-width="1" fill="none" fill-rule="evenodd">
        <g id="sign_up_1" transform="translate(-505.000000, -768.000000)">
            <g id="Group-10" transform="translate(160.000000, 140.000000)">
                <g id="popup">
                    <g id="Group-6">
                        <g id="Group-9" transform="translate(65.000000, 628.000000)">
                            <g id="yahoo" transform="translate(280.000000, 0.000000)">
                                <circle id="Oval-4-Copy-3" fill="#38128A" cx="25" cy="25" r="25"></circle>
                                <path d="M24.5475667,17.6729812 C24.5798012,17.1135014 24.614338,16.5567507 24.6811094,16 C21.1192046,16 17.5596023,16 14,16 C14,16.5567507 14,17.1135014 14,17.6729812 C15.0729461,17.7521271 16.1159602,17.8722106 17.1912088,17.9513566 C19.2058608,20.8579226 21.2205128,23.7644887 23.2697017,26.7092631 C23.2697017,28.2239525 23.2697017,29.6949751 23.2697017,31.2096645 C22.1276818,31.329748 20.985662,31.4088939 19.8436421,31.5289774 C19.8436421,32.0065821 19.8436421,32.5223952 19.8436421,33 C23.3710099,33 26.8983778,33 30.3912088,33 C30.3912088,32.5223952 30.3912088,32.0065821 30.3912088,31.5289774 C29.2491889,31.4471023 28.107169,31.4088939 26.9651491,31.3679563 C26.999686,29.7768502 27.0319205,28.1448066 27.0664574,26.5509713 C29.0465725,24.4795312 30.9967556,22.4108204 32.9446363,20.3393803 C33.9508111,20.2602344 34.9592883,20.1810885 36,20.061005 C36,19.4251084 36,18.7482742 36,18.1096484 C33.0114076,18.150586 30.0550497,18.1887943 27.0664574,18.2679403 C27.0664574,18.8274201 27.0664574,19.3432333 27.0664574,19.9027131 C28.1739403,19.981859 29.2837258,20.0200674 30.3912088,20.061005 C28.9475667,21.5347568 27.5016222,22.967571 26.0579801,24.4413228 C24.5798012,22.2907369 23.1016222,20.1019425 21.6234432,17.9513566 C22.5973836,17.8312731 23.5713239,17.7521271 24.5475667,17.6729812 Z" id="path66-path" fill="#FFFFFF"></path>
                            </g>
                        </g>
                    </g>
                </g>
            </g>
        </g>
    </g>
</svg>